G04 Layer: TopPasteMaskLayer*
G04 EasyEDA v6.3.22, 2020-01-24T18:32:25--3:00*
G04 4d49d37693604a838117592599bc2fa2,3fb4d9e5e1f4485794c53a7e2051cb48,10*
G04 Gerber Generator version 0.2*
G04 Scale: 100 percent, Rotated: No, Reflected: No *
G04 Dimensions in inches *
G04 leading zeros omitted , absolute positions ,2 integer and 4 decimal *
%FSLAX24Y24*%
%MOIN*%
G90*
G70D02*

%ADD10C,0.010000*%
%ADD12C,0.027559*%
%ADD14R,0.045670X0.057087*%

%LPD*%
G54D10*
G01X46200Y20400D02*
G01X46400Y20400D01*
G01X46150Y20400D01*
G54D12*
G01X21250Y14514D02*
G01X21250Y15105D01*
G01X21750Y14514D02*
G01X21750Y15105D01*
G01X22250Y14514D02*
G01X22250Y15105D01*
G01X22750Y14514D02*
G01X22750Y15105D01*
G01X21250Y16894D02*
G01X21250Y17485D01*
G01X21750Y16894D02*
G01X21750Y17485D01*
G01X22250Y16894D02*
G01X22250Y17485D01*
G01X22750Y16894D02*
G01X22750Y17485D01*
G01X21250Y8514D02*
G01X21250Y9105D01*
G01X21750Y8514D02*
G01X21750Y9105D01*
G01X22250Y8514D02*
G01X22250Y9105D01*
G01X22750Y8514D02*
G01X22750Y9105D01*
G01X21250Y10894D02*
G01X21250Y11485D01*
G01X21750Y10894D02*
G01X21750Y11485D01*
G01X22250Y10894D02*
G01X22250Y11485D01*
G01X22750Y10894D02*
G01X22750Y11485D01*
G54D14*
G01X22400Y7000D03*
G01X21600Y7000D03*
G01X22400Y13000D03*
G01X21600Y13000D03*
M00*
M02*
