;Layer: Drill PTH
;EasyEDA v6.3.22, 2020-01-24T18:32:25--3:00
;4d49d37693604a838117592599bc2fa2,3fb4d9e5e1f4485794c53a7e2051cb48,10
;Gerber Generator version 0.2
M48
INCH,LZ,00.0000
;Holesize 1 = 0.012 INCH
T01C0.012
;Holesize 2 = 0.028 INCH
T02C0.028
;Holesize 3 = 0.030 INCH
T03C0.030
;Holesize 4 = 0.033 INCH
T04C0.033
;Holesize 5 = 0.035 INCH
T05C0.035
;Holesize 6 = 0.036 INCH
T06C0.036
;Holesize 7 = 0.037 INCH
T07C0.037
;Holesize 8 = 0.039 INCH
T08C0.039
;Holesize 9 = 0.040 INCH
T09C0.040
;Holesize 10 = 0.050 INCH
T10C0.050
%
G05
G90
T01
X+052000Y+003500
X+023150Y+003350
X+022750Y+011950
X+022250Y+011950
X+021750Y+011950
X+022750Y+017800
X+022250Y+017800
X+021750Y+017800
X+024150Y+003350
X+024150Y+005400
X+019550Y+017750
X+014750Y+019200
X+015850Y+005500
X+022250Y+014050
X+016850Y+007550
X+031350Y+015700
X+039050Y+017450
X+038400Y+017850
X+027250Y+013400
X+032750Y+004300
T02
X+026050Y+010500
X+026050Y+010000
X+026050Y+009500
T03
X+016150Y+018300
X+016150Y+018800
X+016150Y+017800
X+016150Y+017300
T04
X+033150Y+020500
X+032150Y+020500
X+031150Y+020500
X+030150Y+020500
X+029150Y+020500
X+028150Y+020500
X+027150Y+020500
X+026150Y+020500
X+042150Y+020500
X+041150Y+020500
X+040150Y+020500
X+039150Y+020500
X+038150Y+020500
X+037150Y+020500
X+036150Y+020500
X+035150Y+020500
X+028150Y+001500
X+029150Y+001500
X+030150Y+001500
X+031150Y+001500
X+032150Y+001500
X+033150Y+001500
X+034150Y+001500
X+035150Y+001500
X+037150Y+001500
X+038150Y+001500
X+039150Y+001500
X+040150Y+001500
X+041150Y+001500
X+042150Y+001500
X+043150Y+001500
X+044150Y+001500
X+015550Y+020500
X+016550Y+020500
X+017550Y+020500
X+018550Y+020500
X+019550Y+020500
X+020550Y+020500
X+021550Y+020500
X+022550Y+020500
X+023550Y+020500
X+024550Y+020500
X+019150Y+001500
X+020150Y+001500
X+021150Y+001500
X+022150Y+001500
X+023150Y+001500
X+024150Y+001500
X+025150Y+001500
X+026150Y+001500
T05
X+028050Y+016830
X+028050Y+014269
X+019700Y+005450
X+022700Y+005450
T06
X+033950Y+015050
X+036950Y+015050
X+037950Y+015050
X+034950Y+005550
X+035950Y+005550
X+036950Y+005550
X+033950Y+005550
X+039950Y+015050
X+038950Y+015050
X+035950Y+015050
X+034950Y+015050
X+037950Y+005550
X+008300Y+005850
X+009300Y+005850
X+010300Y+005850
X+011300Y+005850
T07
X+045150Y+020500
X+046150Y+020500
X+045150Y+019500
X+046150Y+019500
X+045150Y+018500
X+046150Y+018500
X+045150Y+017500
X+046150Y+017500
X+045150Y+016500
X+046150Y+016500
X+045150Y+015500
X+046150Y+015500
X+045150Y+014500
X+046150Y+014500
X+045150Y+013500
X+046150Y+013500
X+045150Y+012500
X+046150Y+012500
X+045150Y+011500
X+046150Y+011500
X+045150Y+010500
X+046150Y+010500
X+045150Y+009500
X+046150Y+009500
X+045150Y+008500
X+046150Y+008500
X+045150Y+007500
X+046150Y+007500
X+045150Y+006500
X+046150Y+006500
X+045150Y+005500
X+046150Y+005500
X+045150Y+004500
X+046150Y+004500
X+045150Y+003500
X+046150Y+003500
T08
X+015050Y+004950
X+015050Y+002950
X+019050Y+003950
T09
X+053000Y+019500
X+053000Y+018500
X+053000Y+017500
X+053000Y+016500
X+053000Y+015500
X+053000Y+014500
X+053000Y+013500
X+053000Y+012500
X+053000Y+011500
X+053000Y+010500
X+053000Y+009500
X+053000Y+008500
X+053000Y+007500
X+053000Y+006500
X+053000Y+005500
X+053000Y+004500
T10
X+001950Y+016650
X+001950Y+013550
X+001950Y+007250
X+001950Y+010350
M30
