G04 Layer: BottomSolderMaskLayer*
G04 EasyEDA v6.3.22, 2020-01-24T18:32:25--3:00*
G04 4d49d37693604a838117592599bc2fa2,3fb4d9e5e1f4485794c53a7e2051cb48,10*
G04 Gerber Generator version 0.2*
G04 Scale: 100 percent, Rotated: No, Reflected: No *
G04 Dimensions in inches *
G04 leading zeros omitted , absolute positions ,2 integer and 4 decimal *
%FSLAX24Y24*%
%MOIN*%
G90*
G70D02*

%ADD31C,0.047370*%
%ADD34C,0.068000*%
%ADD35C,0.082000*%
%ADD37C,0.120000*%
%ADD38C,0.108740*%
%ADD39C,0.075748*%
%ADD40C,0.083000*%
%ADD41R,0.064000X0.075200*%

%LPD*%
G54D31*
G01X26246Y10500D02*
G01X25853Y10500D01*
G01X26246Y10000D02*
G01X25853Y10000D01*
G01X26246Y9500D02*
G01X25853Y9500D01*
G36*
G01X15794Y18084D02*
G01X15794Y18515D01*
G01X16505Y18515D01*
G01X16505Y18084D01*
G01X15794Y18084D01*
G37*
G36*
G01X15794Y18584D02*
G01X15794Y19015D01*
G01X16505Y19015D01*
G01X16505Y18584D01*
G01X15794Y18584D01*
G37*
G36*
G01X15794Y17584D02*
G01X15794Y18015D01*
G01X16505Y18015D01*
G01X16505Y17584D01*
G01X15794Y17584D01*
G37*
G36*
G01X15794Y17084D02*
G01X15794Y17515D01*
G01X16505Y17515D01*
G01X16505Y17084D01*
G01X15794Y17084D01*
G37*
G54D34*
G01X33950Y15050D03*
G01X36950Y15050D03*
G01X37950Y15050D03*
G01X34950Y5550D03*
G01X35950Y5550D03*
G01X36950Y5550D03*
G01X33950Y5550D03*
G01X39950Y15050D03*
G01X38950Y15050D03*
G01X35950Y15050D03*
G01X34950Y15050D03*
G01X37950Y5550D03*
G54D35*
G01X28050Y16830D03*
G01X28050Y14269D03*
G36*
G01X52589Y19090D02*
G01X52589Y19909D01*
G01X53410Y19909D01*
G01X53410Y19090D01*
G01X52589Y19090D01*
G37*
G01X53000Y18500D03*
G01X53000Y17500D03*
G01X53000Y16500D03*
G01X53000Y15500D03*
G01X53000Y14500D03*
G01X53000Y13500D03*
G01X53000Y12500D03*
G01X53000Y11500D03*
G01X53000Y10500D03*
G01X53000Y9500D03*
G01X53000Y8500D03*
G01X53000Y7500D03*
G01X53000Y6500D03*
G01X53000Y5500D03*
G01X53000Y4500D03*
G54D37*
G01X1950Y16650D03*
G01X1950Y13550D03*
G54D38*
G01X1950Y7250D03*
G54D37*
G01X1950Y10350D03*
G54D39*
G01X15050Y4950D03*
G01X15050Y2950D03*
G01X19050Y3950D03*
G54D35*
G01X19700Y5450D03*
G01X22700Y5450D03*
G54D40*
G01X8300Y5850D03*
G01X9300Y5850D03*
G01X10300Y5850D03*
G01X11300Y5850D03*
G36*
G01X32830Y20123D02*
G01X32830Y20876D01*
G01X33469Y20876D01*
G01X33469Y20123D01*
G01X32830Y20123D01*
G37*
G36*
G01X31830Y20123D02*
G01X31830Y20876D01*
G01X32469Y20876D01*
G01X32469Y20123D01*
G01X31830Y20123D01*
G37*
G36*
G01X30830Y20123D02*
G01X30830Y20876D01*
G01X31469Y20876D01*
G01X31469Y20123D01*
G01X30830Y20123D01*
G37*
G36*
G01X29830Y20123D02*
G01X29830Y20876D01*
G01X30469Y20876D01*
G01X30469Y20123D01*
G01X29830Y20123D01*
G37*
G36*
G01X28830Y20123D02*
G01X28830Y20876D01*
G01X29469Y20876D01*
G01X29469Y20123D01*
G01X28830Y20123D01*
G37*
G36*
G01X27830Y20123D02*
G01X27830Y20876D01*
G01X28469Y20876D01*
G01X28469Y20123D01*
G01X27830Y20123D01*
G37*
G36*
G01X26830Y20123D02*
G01X26830Y20876D01*
G01X27469Y20876D01*
G01X27469Y20123D01*
G01X26830Y20123D01*
G37*
G36*
G01X25830Y20123D02*
G01X25830Y20876D01*
G01X26469Y20876D01*
G01X26469Y20123D01*
G01X25830Y20123D01*
G37*
G36*
G01X41830Y20123D02*
G01X41830Y20876D01*
G01X42469Y20876D01*
G01X42469Y20123D01*
G01X41830Y20123D01*
G37*
G36*
G01X40830Y20123D02*
G01X40830Y20876D01*
G01X41469Y20876D01*
G01X41469Y20123D01*
G01X40830Y20123D01*
G37*
G36*
G01X39830Y20123D02*
G01X39830Y20876D01*
G01X40469Y20876D01*
G01X40469Y20123D01*
G01X39830Y20123D01*
G37*
G36*
G01X38830Y20123D02*
G01X38830Y20876D01*
G01X39469Y20876D01*
G01X39469Y20123D01*
G01X38830Y20123D01*
G37*
G36*
G01X37830Y20123D02*
G01X37830Y20876D01*
G01X38469Y20876D01*
G01X38469Y20123D01*
G01X37830Y20123D01*
G37*
G36*
G01X36830Y20123D02*
G01X36830Y20876D01*
G01X37469Y20876D01*
G01X37469Y20123D01*
G01X36830Y20123D01*
G37*
G36*
G01X35830Y20123D02*
G01X35830Y20876D01*
G01X36469Y20876D01*
G01X36469Y20123D01*
G01X35830Y20123D01*
G37*
G36*
G01X34830Y20123D02*
G01X34830Y20876D01*
G01X35469Y20876D01*
G01X35469Y20123D01*
G01X34830Y20123D01*
G37*
G36*
G01X44780Y20130D02*
G01X44780Y20869D01*
G01X45519Y20869D01*
G01X45519Y20130D01*
G01X44780Y20130D01*
G37*
G36*
G01X45780Y20130D02*
G01X45780Y20869D01*
G01X46519Y20869D01*
G01X46519Y20130D01*
G01X45780Y20130D01*
G37*
G36*
G01X44780Y19130D02*
G01X44780Y19869D01*
G01X45519Y19869D01*
G01X45519Y19130D01*
G01X44780Y19130D01*
G37*
G36*
G01X45780Y19130D02*
G01X45780Y19869D01*
G01X46519Y19869D01*
G01X46519Y19130D01*
G01X45780Y19130D01*
G37*
G36*
G01X44780Y18130D02*
G01X44780Y18869D01*
G01X45519Y18869D01*
G01X45519Y18130D01*
G01X44780Y18130D01*
G37*
G36*
G01X45780Y18130D02*
G01X45780Y18869D01*
G01X46519Y18869D01*
G01X46519Y18130D01*
G01X45780Y18130D01*
G37*
G36*
G01X44780Y17130D02*
G01X44780Y17869D01*
G01X45519Y17869D01*
G01X45519Y17130D01*
G01X44780Y17130D01*
G37*
G36*
G01X45780Y17130D02*
G01X45780Y17869D01*
G01X46519Y17869D01*
G01X46519Y17130D01*
G01X45780Y17130D01*
G37*
G36*
G01X44780Y16130D02*
G01X44780Y16869D01*
G01X45519Y16869D01*
G01X45519Y16130D01*
G01X44780Y16130D01*
G37*
G36*
G01X45780Y16130D02*
G01X45780Y16869D01*
G01X46519Y16869D01*
G01X46519Y16130D01*
G01X45780Y16130D01*
G37*
G36*
G01X44780Y15130D02*
G01X44780Y15869D01*
G01X45519Y15869D01*
G01X45519Y15130D01*
G01X44780Y15130D01*
G37*
G36*
G01X45780Y15130D02*
G01X45780Y15869D01*
G01X46519Y15869D01*
G01X46519Y15130D01*
G01X45780Y15130D01*
G37*
G36*
G01X44780Y14130D02*
G01X44780Y14869D01*
G01X45519Y14869D01*
G01X45519Y14130D01*
G01X44780Y14130D01*
G37*
G36*
G01X45780Y14130D02*
G01X45780Y14869D01*
G01X46519Y14869D01*
G01X46519Y14130D01*
G01X45780Y14130D01*
G37*
G36*
G01X44780Y13130D02*
G01X44780Y13869D01*
G01X45519Y13869D01*
G01X45519Y13130D01*
G01X44780Y13130D01*
G37*
G36*
G01X45780Y13130D02*
G01X45780Y13869D01*
G01X46519Y13869D01*
G01X46519Y13130D01*
G01X45780Y13130D01*
G37*
G36*
G01X44780Y12130D02*
G01X44780Y12869D01*
G01X45519Y12869D01*
G01X45519Y12130D01*
G01X44780Y12130D01*
G37*
G36*
G01X45780Y12130D02*
G01X45780Y12869D01*
G01X46519Y12869D01*
G01X46519Y12130D01*
G01X45780Y12130D01*
G37*
G36*
G01X44780Y11130D02*
G01X44780Y11869D01*
G01X45519Y11869D01*
G01X45519Y11130D01*
G01X44780Y11130D01*
G37*
G36*
G01X45780Y11130D02*
G01X45780Y11869D01*
G01X46519Y11869D01*
G01X46519Y11130D01*
G01X45780Y11130D01*
G37*
G36*
G01X44780Y10130D02*
G01X44780Y10869D01*
G01X45519Y10869D01*
G01X45519Y10130D01*
G01X44780Y10130D01*
G37*
G36*
G01X45780Y10130D02*
G01X45780Y10869D01*
G01X46519Y10869D01*
G01X46519Y10130D01*
G01X45780Y10130D01*
G37*
G36*
G01X44780Y9130D02*
G01X44780Y9869D01*
G01X45519Y9869D01*
G01X45519Y9130D01*
G01X44780Y9130D01*
G37*
G36*
G01X45780Y9130D02*
G01X45780Y9869D01*
G01X46519Y9869D01*
G01X46519Y9130D01*
G01X45780Y9130D01*
G37*
G36*
G01X44780Y8130D02*
G01X44780Y8869D01*
G01X45519Y8869D01*
G01X45519Y8130D01*
G01X44780Y8130D01*
G37*
G36*
G01X45780Y8130D02*
G01X45780Y8869D01*
G01X46519Y8869D01*
G01X46519Y8130D01*
G01X45780Y8130D01*
G37*
G36*
G01X44780Y7130D02*
G01X44780Y7869D01*
G01X45519Y7869D01*
G01X45519Y7130D01*
G01X44780Y7130D01*
G37*
G36*
G01X45780Y7130D02*
G01X45780Y7869D01*
G01X46519Y7869D01*
G01X46519Y7130D01*
G01X45780Y7130D01*
G37*
G36*
G01X44780Y6130D02*
G01X44780Y6869D01*
G01X45519Y6869D01*
G01X45519Y6130D01*
G01X44780Y6130D01*
G37*
G36*
G01X45780Y6130D02*
G01X45780Y6869D01*
G01X46519Y6869D01*
G01X46519Y6130D01*
G01X45780Y6130D01*
G37*
G36*
G01X44780Y5130D02*
G01X44780Y5869D01*
G01X45519Y5869D01*
G01X45519Y5130D01*
G01X44780Y5130D01*
G37*
G36*
G01X45780Y5130D02*
G01X45780Y5869D01*
G01X46519Y5869D01*
G01X46519Y5130D01*
G01X45780Y5130D01*
G37*
G36*
G01X44780Y4130D02*
G01X44780Y4869D01*
G01X45519Y4869D01*
G01X45519Y4130D01*
G01X44780Y4130D01*
G37*
G36*
G01X45780Y4130D02*
G01X45780Y4869D01*
G01X46519Y4869D01*
G01X46519Y4130D01*
G01X45780Y4130D01*
G37*
G36*
G01X44780Y3130D02*
G01X44780Y3869D01*
G01X45519Y3869D01*
G01X45519Y3130D01*
G01X44780Y3130D01*
G37*
G36*
G01X45780Y3130D02*
G01X45780Y3869D01*
G01X46519Y3869D01*
G01X46519Y3130D01*
G01X45780Y3130D01*
G37*
G54D41*
G01X28150Y1500D03*
G01X29150Y1500D03*
G01X30150Y1500D03*
G01X31150Y1500D03*
G01X32150Y1500D03*
G01X33150Y1500D03*
G01X34150Y1500D03*
G01X35150Y1500D03*
G01X37150Y1500D03*
G01X38150Y1500D03*
G01X39150Y1500D03*
G01X40150Y1500D03*
G01X41150Y1500D03*
G01X42150Y1500D03*
G01X43150Y1500D03*
G01X44150Y1500D03*
G01X15550Y20500D03*
G01X16550Y20500D03*
G01X17550Y20500D03*
G01X18550Y20500D03*
G01X19550Y20500D03*
G01X20550Y20500D03*
G01X21550Y20500D03*
G01X22550Y20500D03*
G01X23550Y20500D03*
G01X24550Y20500D03*
G01X19150Y1500D03*
G01X20150Y1500D03*
G01X21150Y1500D03*
G01X22150Y1500D03*
G01X23150Y1500D03*
G01X24150Y1500D03*
G01X25150Y1500D03*
G01X26150Y1500D03*
M00*
M02*
