G04 Layer: TopSilkLayer*
G04 EasyEDA v6.3.22, 2020-01-24T18:32:25--3:00*
G04 4d49d37693604a838117592599bc2fa2,3fb4d9e5e1f4485794c53a7e2051cb48,10*
G04 Gerber Generator version 0.2*
G04 Scale: 100 percent, Rotated: No, Reflected: No *
G04 Dimensions in inches *
G04 leading zeros omitted , absolute positions ,2 integer and 4 decimal *
%FSLAX24Y24*%
%MOIN*%
G90*
G70D02*

%ADD10C,0.010000*%
%ADD25C,0.008000*%
%ADD26C,0.007870*%
%ADD27C,0.012000*%
%ADD28C,0.016000*%
%ADD29C,0.006000*%

%LPD*%
G54D10*
G01X16539Y19030D02*
G01X15760Y19030D01*
G01X21050Y15369D02*
G01X22950Y15369D01*
G01X22950Y16609D01*
G01X21050Y16609D01*
G01X21050Y16609D02*
G01X21050Y16240D01*
G01X21050Y15740D02*
G01X21050Y15369D01*
G01X21050Y9369D02*
G01X22950Y9369D01*
G01X22950Y10609D01*
G01X21050Y10609D01*
G01X21050Y10609D02*
G01X21050Y10240D01*
G01X21050Y9740D02*
G01X21050Y9369D01*
G54D26*
G01X21781Y7407D02*
G01X21261Y7407D01*
G01X21261Y6592D01*
G01X21781Y6592D01*
G01X22227Y7407D02*
G01X22747Y7407D01*
G01X22747Y6592D01*
G01X22227Y6592D01*
G01X21781Y13407D02*
G01X21261Y13407D01*
G01X21261Y12592D01*
G01X21781Y12592D01*
G01X22227Y13407D02*
G01X22747Y13407D01*
G01X22747Y12592D01*
G01X22227Y12592D01*
G54D10*
G01X25459Y9220D02*
G01X25459Y10779D01*
G01X41950Y15550D02*
G01X41950Y5050D01*
G01X30950Y15550D02*
G01X30950Y5050D01*
G01X30950Y15550D02*
G01X41950Y15550D01*
G01X30950Y5050D02*
G01X41950Y5050D01*
G01X19050Y2950D02*
G01X19050Y4950D01*
G01X19050Y4950D02*
G01X15100Y4950D01*
G01X15050Y4950D02*
G01X15050Y2950D01*
G01X15050Y2950D02*
G01X19050Y2950D01*
G01X17050Y4100D02*
G01X17050Y3800D01*
G01X17200Y3950D02*
G01X16900Y3950D01*
G01X20200Y5850D02*
G01X22200Y5850D01*
G01X22200Y5750D02*
G01X22200Y5450D01*
G01X22200Y5450D02*
G01X22200Y5150D01*
G01X22200Y5050D02*
G01X20200Y5050D01*
G01X20200Y5150D02*
G01X20200Y5450D01*
G01X20200Y5450D02*
G01X20200Y5750D01*
G01X22200Y5450D02*
G01X22300Y5450D01*
G01X20200Y5450D02*
G01X20100Y5450D01*
G01X6800Y4850D02*
G01X6800Y18850D01*
G01X12800Y18850D01*
G01X12800Y4850D01*
G01X6800Y4850D01*
G01X25650Y1250D02*
G01X25900Y1000D01*
G01X25900Y2000D02*
G01X25650Y1750D01*
G01X26650Y1250D02*
G01X26400Y1000D01*
G01X26650Y1750D02*
G01X26650Y1250D01*
G01X26400Y2000D02*
G01X26650Y1750D01*
G01X25900Y2000D02*
G01X26400Y2000D01*
G01X19400Y1000D02*
G01X18900Y1000D01*
G01X18650Y1250D02*
G01X18900Y1000D01*
G01X18900Y2000D02*
G01X18650Y1750D01*
G01X18650Y1750D02*
G01X18650Y1250D01*
G01X19900Y1000D02*
G01X19650Y1250D01*
G01X20400Y1000D02*
G01X19900Y1000D01*
G01X20650Y1250D02*
G01X20400Y1000D01*
G01X20650Y1750D02*
G01X20650Y1250D01*
G01X20400Y2000D02*
G01X20650Y1750D01*
G01X19900Y2000D02*
G01X20400Y2000D01*
G01X19650Y1750D02*
G01X19900Y2000D01*
G01X19650Y1250D02*
G01X19400Y1000D01*
G01X19650Y1750D02*
G01X19650Y1250D01*
G01X19400Y2000D02*
G01X19650Y1750D01*
G01X18900Y2000D02*
G01X19400Y2000D01*
G01X22400Y1000D02*
G01X21900Y1000D01*
G01X21650Y1250D02*
G01X21900Y1000D01*
G01X21900Y2000D02*
G01X21650Y1750D01*
G01X20900Y1000D02*
G01X20650Y1250D01*
G01X21400Y1000D02*
G01X20900Y1000D01*
G01X21650Y1250D02*
G01X21400Y1000D01*
G01X21650Y1750D02*
G01X21650Y1250D01*
G01X21400Y2000D02*
G01X21650Y1750D01*
G01X20900Y2000D02*
G01X21400Y2000D01*
G01X20650Y1750D02*
G01X20900Y2000D01*
G01X22900Y1000D02*
G01X22650Y1250D01*
G01X23400Y1000D02*
G01X22900Y1000D01*
G01X23650Y1250D02*
G01X23400Y1000D01*
G01X23650Y1750D02*
G01X23650Y1250D01*
G01X23400Y2000D02*
G01X23650Y1750D01*
G01X22900Y2000D02*
G01X23400Y2000D01*
G01X22650Y1750D02*
G01X22900Y2000D01*
G01X22650Y1250D02*
G01X22400Y1000D01*
G01X22650Y1750D02*
G01X22650Y1250D01*
G01X22400Y2000D02*
G01X22650Y1750D01*
G01X21900Y2000D02*
G01X22400Y2000D01*
G01X25400Y1000D02*
G01X24900Y1000D01*
G01X24650Y1250D02*
G01X24900Y1000D01*
G01X24900Y2000D02*
G01X24650Y1750D01*
G01X23900Y1000D02*
G01X23650Y1250D01*
G01X24400Y1000D02*
G01X23900Y1000D01*
G01X24650Y1250D02*
G01X24400Y1000D01*
G01X24650Y1750D02*
G01X24650Y1250D01*
G01X24400Y2000D02*
G01X24650Y1750D01*
G01X23900Y2000D02*
G01X24400Y2000D01*
G01X23650Y1750D02*
G01X23900Y2000D01*
G01X25650Y1250D02*
G01X25400Y1000D01*
G01X25650Y1750D02*
G01X25650Y1250D01*
G01X25400Y2000D02*
G01X25650Y1750D01*
G01X24900Y2000D02*
G01X25400Y2000D01*
G01X24800Y20000D02*
G01X24300Y20000D01*
G01X24050Y20250D02*
G01X24300Y20000D01*
G01X24300Y21000D02*
G01X24050Y20750D01*
G01X25050Y20250D02*
G01X24800Y20000D01*
G01X25050Y20750D02*
G01X25050Y20250D01*
G01X24800Y21000D02*
G01X25050Y20750D01*
G01X24300Y21000D02*
G01X24800Y21000D01*
G01X15800Y20000D02*
G01X15300Y20000D01*
G01X15050Y20250D02*
G01X15300Y20000D01*
G01X15300Y21000D02*
G01X15050Y20750D01*
G01X15050Y20750D02*
G01X15050Y20250D01*
G01X16300Y20000D02*
G01X16050Y20250D01*
G01X16800Y20000D02*
G01X16300Y20000D01*
G01X17050Y20250D02*
G01X16800Y20000D01*
G01X17050Y20750D02*
G01X17050Y20250D01*
G01X16800Y21000D02*
G01X17050Y20750D01*
G01X16300Y21000D02*
G01X16800Y21000D01*
G01X16050Y20750D02*
G01X16300Y21000D01*
G01X16050Y20250D02*
G01X15800Y20000D01*
G01X16050Y20750D02*
G01X16050Y20250D01*
G01X15800Y21000D02*
G01X16050Y20750D01*
G01X15300Y21000D02*
G01X15800Y21000D01*
G01X18800Y20000D02*
G01X18300Y20000D01*
G01X18050Y20250D02*
G01X18300Y20000D01*
G01X18300Y21000D02*
G01X18050Y20750D01*
G01X17300Y20000D02*
G01X17050Y20250D01*
G01X17800Y20000D02*
G01X17300Y20000D01*
G01X18050Y20250D02*
G01X17800Y20000D01*
G01X18050Y20750D02*
G01X18050Y20250D01*
G01X17800Y21000D02*
G01X18050Y20750D01*
G01X17300Y21000D02*
G01X17800Y21000D01*
G01X17050Y20750D02*
G01X17300Y21000D01*
G01X19300Y20000D02*
G01X19050Y20250D01*
G01X19800Y20000D02*
G01X19300Y20000D01*
G01X20050Y20250D02*
G01X19800Y20000D01*
G01X20050Y20750D02*
G01X20050Y20250D01*
G01X19800Y21000D02*
G01X20050Y20750D01*
G01X19300Y21000D02*
G01X19800Y21000D01*
G01X19050Y20750D02*
G01X19300Y21000D01*
G01X19050Y20250D02*
G01X18800Y20000D01*
G01X19050Y20750D02*
G01X19050Y20250D01*
G01X18800Y21000D02*
G01X19050Y20750D01*
G01X18300Y21000D02*
G01X18800Y21000D01*
G01X21800Y20000D02*
G01X21300Y20000D01*
G01X21050Y20250D02*
G01X21300Y20000D01*
G01X21300Y21000D02*
G01X21050Y20750D01*
G01X20300Y20000D02*
G01X20050Y20250D01*
G01X20800Y20000D02*
G01X20300Y20000D01*
G01X21050Y20250D02*
G01X20800Y20000D01*
G01X21050Y20750D02*
G01X21050Y20250D01*
G01X20800Y21000D02*
G01X21050Y20750D01*
G01X20300Y21000D02*
G01X20800Y21000D01*
G01X20050Y20750D02*
G01X20300Y21000D01*
G01X22300Y20000D02*
G01X22050Y20250D01*
G01X22800Y20000D02*
G01X22300Y20000D01*
G01X23050Y20250D02*
G01X22800Y20000D01*
G01X23050Y20750D02*
G01X23050Y20250D01*
G01X22800Y21000D02*
G01X23050Y20750D01*
G01X22300Y21000D02*
G01X22800Y21000D01*
G01X22050Y20750D02*
G01X22300Y21000D01*
G01X22050Y20250D02*
G01X21800Y20000D01*
G01X22050Y20750D02*
G01X22050Y20250D01*
G01X21800Y21000D02*
G01X22050Y20750D01*
G01X21300Y21000D02*
G01X21800Y21000D01*
G01X23300Y20000D02*
G01X23050Y20250D01*
G01X23800Y20000D02*
G01X23300Y20000D01*
G01X24050Y20250D02*
G01X23800Y20000D01*
G01X24050Y20750D02*
G01X24050Y20250D01*
G01X23800Y21000D02*
G01X24050Y20750D01*
G01X23300Y21000D02*
G01X23800Y21000D01*
G01X23050Y20750D02*
G01X23300Y21000D01*
G01X44400Y1000D02*
G01X43900Y1000D01*
G01X43650Y1250D02*
G01X43900Y1000D01*
G01X43900Y2000D02*
G01X43650Y1750D01*
G01X44650Y1250D02*
G01X44400Y1000D01*
G01X44650Y1750D02*
G01X44650Y1250D01*
G01X44400Y2000D02*
G01X44650Y1750D01*
G01X43900Y2000D02*
G01X44400Y2000D01*
G01X37400Y1000D02*
G01X36900Y1000D01*
G01X36650Y1250D02*
G01X36900Y1000D01*
G01X36900Y2000D02*
G01X36650Y1750D01*
G01X36650Y1750D02*
G01X36650Y1250D01*
G01X37900Y1000D02*
G01X37650Y1250D01*
G01X38400Y1000D02*
G01X37900Y1000D01*
G01X38650Y1250D02*
G01X38400Y1000D01*
G01X38650Y1750D02*
G01X38650Y1250D01*
G01X38400Y2000D02*
G01X38650Y1750D01*
G01X37900Y2000D02*
G01X38400Y2000D01*
G01X37650Y1750D02*
G01X37900Y2000D01*
G01X37650Y1250D02*
G01X37400Y1000D01*
G01X37650Y1750D02*
G01X37650Y1250D01*
G01X37400Y2000D02*
G01X37650Y1750D01*
G01X36900Y2000D02*
G01X37400Y2000D01*
G01X40400Y1000D02*
G01X39900Y1000D01*
G01X39650Y1250D02*
G01X39900Y1000D01*
G01X39900Y2000D02*
G01X39650Y1750D01*
G01X38900Y1000D02*
G01X38650Y1250D01*
G01X39400Y1000D02*
G01X38900Y1000D01*
G01X39650Y1250D02*
G01X39400Y1000D01*
G01X39650Y1750D02*
G01X39650Y1250D01*
G01X39400Y2000D02*
G01X39650Y1750D01*
G01X38900Y2000D02*
G01X39400Y2000D01*
G01X38650Y1750D02*
G01X38900Y2000D01*
G01X40900Y1000D02*
G01X40650Y1250D01*
G01X41400Y1000D02*
G01X40900Y1000D01*
G01X41650Y1250D02*
G01X41400Y1000D01*
G01X41650Y1750D02*
G01X41650Y1250D01*
G01X41400Y2000D02*
G01X41650Y1750D01*
G01X40900Y2000D02*
G01X41400Y2000D01*
G01X40650Y1750D02*
G01X40900Y2000D01*
G01X40650Y1250D02*
G01X40400Y1000D01*
G01X40650Y1750D02*
G01X40650Y1250D01*
G01X40400Y2000D02*
G01X40650Y1750D01*
G01X39900Y2000D02*
G01X40400Y2000D01*
G01X43400Y1000D02*
G01X42900Y1000D01*
G01X42650Y1250D02*
G01X42900Y1000D01*
G01X42900Y2000D02*
G01X42650Y1750D01*
G01X41900Y1000D02*
G01X41650Y1250D01*
G01X42400Y1000D02*
G01X41900Y1000D01*
G01X42650Y1250D02*
G01X42400Y1000D01*
G01X42650Y1750D02*
G01X42650Y1250D01*
G01X42400Y2000D02*
G01X42650Y1750D01*
G01X41900Y2000D02*
G01X42400Y2000D01*
G01X41650Y1750D02*
G01X41900Y2000D01*
G01X43650Y1250D02*
G01X43400Y1000D01*
G01X43650Y1750D02*
G01X43650Y1250D01*
G01X43400Y2000D02*
G01X43650Y1750D01*
G01X42900Y2000D02*
G01X43400Y2000D01*
G01X35400Y1000D02*
G01X34900Y1000D01*
G01X34650Y1250D02*
G01X34900Y1000D01*
G01X34900Y2000D02*
G01X34650Y1750D01*
G01X35650Y1250D02*
G01X35400Y1000D01*
G01X35650Y1750D02*
G01X35650Y1250D01*
G01X35400Y2000D02*
G01X35650Y1750D01*
G01X34900Y2000D02*
G01X35400Y2000D01*
G01X28400Y1000D02*
G01X27900Y1000D01*
G01X27650Y1250D02*
G01X27900Y1000D01*
G01X27900Y2000D02*
G01X27650Y1750D01*
G01X27650Y1750D02*
G01X27650Y1250D01*
G01X28900Y1000D02*
G01X28650Y1250D01*
G01X29400Y1000D02*
G01X28900Y1000D01*
G01X29650Y1250D02*
G01X29400Y1000D01*
G01X29650Y1750D02*
G01X29650Y1250D01*
G01X29400Y2000D02*
G01X29650Y1750D01*
G01X28900Y2000D02*
G01X29400Y2000D01*
G01X28650Y1750D02*
G01X28900Y2000D01*
G01X28650Y1250D02*
G01X28400Y1000D01*
G01X28650Y1750D02*
G01X28650Y1250D01*
G01X28400Y2000D02*
G01X28650Y1750D01*
G01X27900Y2000D02*
G01X28400Y2000D01*
G01X31400Y1000D02*
G01X30900Y1000D01*
G01X30650Y1250D02*
G01X30900Y1000D01*
G01X30900Y2000D02*
G01X30650Y1750D01*
G01X29900Y1000D02*
G01X29650Y1250D01*
G01X30400Y1000D02*
G01X29900Y1000D01*
G01X30650Y1250D02*
G01X30400Y1000D01*
G01X30650Y1750D02*
G01X30650Y1250D01*
G01X30400Y2000D02*
G01X30650Y1750D01*
G01X29900Y2000D02*
G01X30400Y2000D01*
G01X29650Y1750D02*
G01X29900Y2000D01*
G01X31900Y1000D02*
G01X31650Y1250D01*
G01X32400Y1000D02*
G01X31900Y1000D01*
G01X32650Y1250D02*
G01X32400Y1000D01*
G01X32650Y1750D02*
G01X32650Y1250D01*
G01X32400Y2000D02*
G01X32650Y1750D01*
G01X31900Y2000D02*
G01X32400Y2000D01*
G01X31650Y1750D02*
G01X31900Y2000D01*
G01X31650Y1250D02*
G01X31400Y1000D01*
G01X31650Y1750D02*
G01X31650Y1250D01*
G01X31400Y2000D02*
G01X31650Y1750D01*
G01X30900Y2000D02*
G01X31400Y2000D01*
G01X34400Y1000D02*
G01X33900Y1000D01*
G01X33650Y1250D02*
G01X33900Y1000D01*
G01X33900Y2000D02*
G01X33650Y1750D01*
G01X32900Y1000D02*
G01X32650Y1250D01*
G01X33400Y1000D02*
G01X32900Y1000D01*
G01X33650Y1250D02*
G01X33400Y1000D01*
G01X33650Y1750D02*
G01X33650Y1250D01*
G01X33400Y2000D02*
G01X33650Y1750D01*
G01X32900Y2000D02*
G01X33400Y2000D01*
G01X32650Y1750D02*
G01X32900Y2000D01*
G01X34650Y1250D02*
G01X34400Y1000D01*
G01X34650Y1750D02*
G01X34650Y1250D01*
G01X34400Y2000D02*
G01X34650Y1750D01*
G01X33900Y2000D02*
G01X34400Y2000D01*
G01X46400Y3000D02*
G01X44900Y3000D01*
G01X46400Y4000D02*
G01X44900Y4000D01*
G01X46400Y5000D02*
G01X44900Y5000D01*
G01X46400Y6000D02*
G01X44900Y6000D01*
G01X46400Y7000D02*
G01X44900Y7000D01*
G01X46400Y8000D02*
G01X44900Y8000D01*
G01X46400Y9000D02*
G01X44900Y9000D01*
G01X46400Y10000D02*
G01X44900Y10000D01*
G01X46400Y11000D02*
G01X44900Y11000D01*
G01X46400Y12000D02*
G01X44900Y12000D01*
G01X46400Y13000D02*
G01X44900Y13000D01*
G01X46400Y14000D02*
G01X44900Y14000D01*
G01X46400Y15000D02*
G01X44900Y15000D01*
G01X46400Y16000D02*
G01X44900Y16000D01*
G01X46400Y17000D02*
G01X44900Y17000D01*
G01X46400Y18000D02*
G01X44900Y18000D01*
G01X46400Y19000D02*
G01X44900Y19000D01*
G01X46400Y20000D02*
G01X44900Y20000D01*
G01X44900Y15000D02*
G01X44650Y14750D01*
G01X44650Y14250D02*
G01X44650Y14750D01*
G01X44900Y14000D02*
G01X44650Y14250D01*
G01X44900Y14000D02*
G01X44650Y13750D01*
G01X44650Y13250D02*
G01X44650Y13750D01*
G01X44900Y13000D02*
G01X44650Y13250D01*
G01X44900Y13000D02*
G01X44650Y12750D01*
G01X44650Y12250D02*
G01X44650Y12750D01*
G01X44900Y12000D02*
G01X44650Y12250D01*
G01X44900Y12000D02*
G01X44650Y11750D01*
G01X44650Y11250D02*
G01X44650Y11750D01*
G01X44900Y11000D02*
G01X44650Y11250D01*
G01X44900Y11000D02*
G01X44650Y10750D01*
G01X44650Y10250D02*
G01X44650Y10750D01*
G01X44900Y10000D02*
G01X44650Y10250D01*
G01X44900Y10000D02*
G01X44650Y9750D01*
G01X44650Y9250D02*
G01X44650Y9750D01*
G01X44900Y9000D02*
G01X44650Y9250D01*
G01X44900Y9000D02*
G01X44650Y8750D01*
G01X44650Y8250D02*
G01X44650Y8750D01*
G01X44900Y8000D02*
G01X44650Y8250D01*
G01X44900Y8000D02*
G01X44650Y7750D01*
G01X44650Y7250D02*
G01X44650Y7750D01*
G01X44900Y7000D02*
G01X44650Y7250D01*
G01X44650Y6750D02*
G01X44900Y7000D01*
G01X44650Y6750D02*
G01X44650Y6250D01*
G01X44900Y6000D02*
G01X44650Y6250D01*
G01X44650Y5750D02*
G01X44900Y6000D01*
G01X44650Y5750D02*
G01X44650Y5250D01*
G01X44900Y5000D02*
G01X44650Y5250D01*
G01X44900Y5000D02*
G01X44650Y4750D01*
G01X44650Y4250D02*
G01X44650Y4750D01*
G01X44900Y4000D02*
G01X44650Y4250D01*
G01X44900Y4000D02*
G01X44650Y3750D01*
G01X44650Y3250D02*
G01X44650Y3750D01*
G01X44900Y3000D02*
G01X44650Y3250D01*
G01X46650Y3250D02*
G01X46400Y3000D01*
G01X46650Y3250D02*
G01X46650Y3750D01*
G01X46400Y4000D02*
G01X46650Y3750D01*
G01X46650Y4250D02*
G01X46400Y4000D01*
G01X46650Y4250D02*
G01X46650Y4750D01*
G01X46400Y5000D02*
G01X46650Y4750D01*
G01X46650Y5250D02*
G01X46400Y5000D01*
G01X46650Y5250D02*
G01X46650Y5750D01*
G01X46400Y6000D02*
G01X46650Y5750D01*
G01X46650Y6250D02*
G01X46400Y6000D01*
G01X46650Y6250D02*
G01X46650Y6750D01*
G01X46400Y7000D02*
G01X46650Y6750D01*
G01X46650Y7250D02*
G01X46400Y7000D01*
G01X46650Y7250D02*
G01X46650Y7750D01*
G01X46400Y8000D02*
G01X46650Y7750D01*
G01X46650Y8250D02*
G01X46400Y8000D01*
G01X46650Y8250D02*
G01X46650Y8750D01*
G01X46400Y9000D02*
G01X46650Y8750D01*
G01X46400Y9000D02*
G01X46650Y9250D01*
G01X46650Y9750D02*
G01X46650Y9250D01*
G01X46400Y10000D02*
G01X46650Y9750D01*
G01X46650Y10250D02*
G01X46400Y10000D01*
G01X46650Y10750D02*
G01X46650Y10250D01*
G01X46400Y11000D02*
G01X46650Y10750D01*
G01X46650Y11250D02*
G01X46400Y11000D01*
G01X46650Y11750D02*
G01X46650Y11250D01*
G01X46400Y12000D02*
G01X46650Y11750D01*
G01X46650Y12250D02*
G01X46400Y12000D01*
G01X46650Y12750D02*
G01X46650Y12250D01*
G01X46400Y13000D02*
G01X46650Y12750D01*
G01X46650Y13250D02*
G01X46400Y13000D01*
G01X46650Y13750D02*
G01X46650Y13250D01*
G01X46400Y14000D02*
G01X46650Y13750D01*
G01X46650Y14250D02*
G01X46400Y14000D01*
G01X46650Y14750D02*
G01X46650Y14250D01*
G01X46400Y15000D02*
G01X46650Y14750D01*
G01X46650Y15250D02*
G01X46400Y15000D01*
G01X46650Y15750D02*
G01X46650Y15250D01*
G01X46400Y16000D02*
G01X46650Y15750D01*
G01X46650Y16250D02*
G01X46400Y16000D01*
G01X46650Y16750D02*
G01X46650Y16250D01*
G01X46400Y17000D02*
G01X46650Y16750D01*
G01X46650Y17250D02*
G01X46400Y17000D01*
G01X46650Y17750D02*
G01X46650Y17250D01*
G01X46400Y18000D02*
G01X46650Y17750D01*
G01X46650Y18250D02*
G01X46400Y18000D01*
G01X46650Y18750D02*
G01X46650Y18250D01*
G01X46400Y19000D02*
G01X46650Y18750D01*
G01X46650Y19250D02*
G01X46400Y19000D01*
G01X46650Y19750D02*
G01X46650Y19250D01*
G01X46400Y20000D02*
G01X46650Y19750D01*
G01X46650Y20250D02*
G01X46400Y20000D01*
G01X46650Y20750D02*
G01X46650Y20250D01*
G01X46400Y21000D02*
G01X46650Y20750D01*
G01X44900Y21000D02*
G01X46400Y21000D01*
G01X44650Y15250D02*
G01X44900Y15000D01*
G01X44650Y15750D02*
G01X44650Y15250D01*
G01X44900Y16000D02*
G01X44650Y15750D01*
G01X44650Y16250D02*
G01X44900Y16000D01*
G01X44650Y16750D02*
G01X44650Y16250D01*
G01X44900Y17000D02*
G01X44650Y16750D01*
G01X44650Y17250D02*
G01X44900Y17000D01*
G01X44650Y17750D02*
G01X44650Y17250D01*
G01X44900Y18000D02*
G01X44650Y17750D01*
G01X44650Y18250D02*
G01X44900Y18000D01*
G01X44650Y18750D02*
G01X44650Y18250D01*
G01X44900Y19000D02*
G01X44650Y18750D01*
G01X44650Y19250D02*
G01X44900Y19000D01*
G01X44650Y19750D02*
G01X44650Y19250D01*
G01X44900Y20000D02*
G01X44650Y19750D01*
G01X44650Y20250D02*
G01X44900Y20000D01*
G01X44650Y20750D02*
G01X44650Y20250D01*
G01X44900Y21000D02*
G01X44650Y20750D01*
G01X34900Y21000D02*
G01X35400Y21000D01*
G01X35650Y20750D02*
G01X35400Y21000D01*
G01X35400Y20000D02*
G01X35650Y20250D01*
G01X34650Y20750D02*
G01X34900Y21000D01*
G01X34650Y20250D02*
G01X34650Y20750D01*
G01X34900Y20000D02*
G01X34650Y20250D01*
G01X35400Y20000D02*
G01X34900Y20000D01*
G01X41900Y21000D02*
G01X42400Y21000D01*
G01X42650Y20750D02*
G01X42400Y21000D01*
G01X42400Y20000D02*
G01X42650Y20250D01*
G01X42650Y20250D02*
G01X42650Y20750D01*
G01X41400Y21000D02*
G01X41650Y20750D01*
G01X40900Y21000D02*
G01X41400Y21000D01*
G01X40650Y20750D02*
G01X40900Y21000D01*
G01X40650Y20250D02*
G01X40650Y20750D01*
G01X40900Y20000D02*
G01X40650Y20250D01*
G01X41400Y20000D02*
G01X40900Y20000D01*
G01X41650Y20250D02*
G01X41400Y20000D01*
G01X41650Y20750D02*
G01X41900Y21000D01*
G01X41650Y20250D02*
G01X41650Y20750D01*
G01X41900Y20000D02*
G01X41650Y20250D01*
G01X42400Y20000D02*
G01X41900Y20000D01*
G01X38900Y21000D02*
G01X39400Y21000D01*
G01X39650Y20750D02*
G01X39400Y21000D01*
G01X39400Y20000D02*
G01X39650Y20250D01*
G01X40400Y21000D02*
G01X40650Y20750D01*
G01X39900Y21000D02*
G01X40400Y21000D01*
G01X39650Y20750D02*
G01X39900Y21000D01*
G01X39650Y20250D02*
G01X39650Y20750D01*
G01X39900Y20000D02*
G01X39650Y20250D01*
G01X40400Y20000D02*
G01X39900Y20000D01*
G01X40650Y20250D02*
G01X40400Y20000D01*
G01X38400Y21000D02*
G01X38650Y20750D01*
G01X37900Y21000D02*
G01X38400Y21000D01*
G01X37650Y20750D02*
G01X37900Y21000D01*
G01X37650Y20250D02*
G01X37650Y20750D01*
G01X37900Y20000D02*
G01X37650Y20250D01*
G01X38400Y20000D02*
G01X37900Y20000D01*
G01X38650Y20250D02*
G01X38400Y20000D01*
G01X38650Y20750D02*
G01X38900Y21000D01*
G01X38650Y20250D02*
G01X38650Y20750D01*
G01X38900Y20000D02*
G01X38650Y20250D01*
G01X39400Y20000D02*
G01X38900Y20000D01*
G01X35900Y21000D02*
G01X36400Y21000D01*
G01X36650Y20750D02*
G01X36400Y21000D01*
G01X36400Y20000D02*
G01X36650Y20250D01*
G01X37400Y21000D02*
G01X37650Y20750D01*
G01X36900Y21000D02*
G01X37400Y21000D01*
G01X36650Y20750D02*
G01X36900Y21000D01*
G01X36650Y20250D02*
G01X36650Y20750D01*
G01X36900Y20000D02*
G01X36650Y20250D01*
G01X37400Y20000D02*
G01X36900Y20000D01*
G01X37650Y20250D02*
G01X37400Y20000D01*
G01X35650Y20750D02*
G01X35900Y21000D01*
G01X35650Y20250D02*
G01X35650Y20750D01*
G01X35900Y20000D02*
G01X35650Y20250D01*
G01X36400Y20000D02*
G01X35900Y20000D01*
G01X25900Y21000D02*
G01X26400Y21000D01*
G01X26650Y20750D02*
G01X26400Y21000D01*
G01X26400Y20000D02*
G01X26650Y20250D01*
G01X25650Y20750D02*
G01X25900Y21000D01*
G01X25650Y20250D02*
G01X25650Y20750D01*
G01X25900Y20000D02*
G01X25650Y20250D01*
G01X26400Y20000D02*
G01X25900Y20000D01*
G01X32900Y21000D02*
G01X33400Y21000D01*
G01X33650Y20750D02*
G01X33400Y21000D01*
G01X33400Y20000D02*
G01X33650Y20250D01*
G01X33650Y20250D02*
G01X33650Y20750D01*
G01X32400Y21000D02*
G01X32650Y20750D01*
G01X31900Y21000D02*
G01X32400Y21000D01*
G01X31650Y20750D02*
G01X31900Y21000D01*
G01X31650Y20250D02*
G01X31650Y20750D01*
G01X31900Y20000D02*
G01X31650Y20250D01*
G01X32400Y20000D02*
G01X31900Y20000D01*
G01X32650Y20250D02*
G01X32400Y20000D01*
G01X32650Y20750D02*
G01X32900Y21000D01*
G01X32650Y20250D02*
G01X32650Y20750D01*
G01X32900Y20000D02*
G01X32650Y20250D01*
G01X33400Y20000D02*
G01X32900Y20000D01*
G01X29900Y21000D02*
G01X30400Y21000D01*
G01X30650Y20750D02*
G01X30400Y21000D01*
G01X30400Y20000D02*
G01X30650Y20250D01*
G01X31400Y21000D02*
G01X31650Y20750D01*
G01X30900Y21000D02*
G01X31400Y21000D01*
G01X30650Y20750D02*
G01X30900Y21000D01*
G01X30650Y20250D02*
G01X30650Y20750D01*
G01X30900Y20000D02*
G01X30650Y20250D01*
G01X31400Y20000D02*
G01X30900Y20000D01*
G01X31650Y20250D02*
G01X31400Y20000D01*
G01X29400Y21000D02*
G01X29650Y20750D01*
G01X28900Y21000D02*
G01X29400Y21000D01*
G01X28650Y20750D02*
G01X28900Y21000D01*
G01X28650Y20250D02*
G01X28650Y20750D01*
G01X28900Y20000D02*
G01X28650Y20250D01*
G01X29400Y20000D02*
G01X28900Y20000D01*
G01X29650Y20250D02*
G01X29400Y20000D01*
G01X29650Y20750D02*
G01X29900Y21000D01*
G01X29650Y20250D02*
G01X29650Y20750D01*
G01X29900Y20000D02*
G01X29650Y20250D01*
G01X30400Y20000D02*
G01X29900Y20000D01*
G01X26900Y21000D02*
G01X27400Y21000D01*
G01X27650Y20750D02*
G01X27400Y21000D01*
G01X27400Y20000D02*
G01X27650Y20250D01*
G01X28400Y21000D02*
G01X28650Y20750D01*
G01X27900Y21000D02*
G01X28400Y21000D01*
G01X27650Y20750D02*
G01X27900Y21000D01*
G01X27650Y20250D02*
G01X27650Y20750D01*
G01X27900Y20000D02*
G01X27650Y20250D01*
G01X28400Y20000D02*
G01X27900Y20000D01*
G01X28650Y20250D02*
G01X28400Y20000D01*
G01X26650Y20750D02*
G01X26900Y21000D01*
G01X26650Y20250D02*
G01X26650Y20750D01*
G01X26900Y20000D02*
G01X26650Y20250D01*
G01X27400Y20000D02*
G01X26900Y20000D01*
G54D27*
G01X32041Y16603D02*
G01X35241Y16602D01*
G01X32044Y16603D02*
G01X31694Y16953D01*
G01X20050Y18598D02*
G01X24044Y18592D01*
G54D28*
G01X31850Y18700D02*
G01X32100Y19200D01*
G54D27*
G01X43100Y19250D02*
G01X43500Y19650D01*
G01X43096Y12823D02*
G01X43100Y19250D01*
G01X43100Y5100D02*
G01X43500Y4700D01*
G01X43100Y9700D02*
G01X43100Y5100D01*
G01X28499Y3323D02*
G01X28099Y2923D01*
G01X29299Y3323D02*
G01X28499Y3323D01*
G01X43557Y3362D02*
G01X43907Y3012D01*
G01X35331Y3362D02*
G01X43550Y3363D01*
G01X41856Y16585D02*
G01X42306Y17035D01*
G01X20000Y18596D02*
G01X19650Y18946D01*
G01X30700Y18596D02*
G01X31100Y18996D01*
G01X26300Y18596D02*
G01X30700Y18596D01*
G01X46150Y21250D02*
G01X46150Y21000D01*
G01X45150Y21250D02*
G01X46150Y21250D01*
G01X45150Y21000D02*
G01X45150Y21250D01*
G01X46150Y2550D02*
G01X46150Y2750D01*
G01X45150Y2550D02*
G01X46150Y2550D01*
G01X45150Y2750D02*
G01X45150Y2550D01*
G54D28*
G01X32100Y19200D02*
G01X32350Y18700D01*
G01X32100Y18700D02*
G01X31850Y18700D01*
G01X31850Y18700D02*
G01X32100Y18950D01*
G01X32100Y18950D02*
G01X32100Y18700D01*
G01X32100Y18700D02*
G01X32350Y18700D01*
G01X32350Y18700D02*
G01X32100Y18950D01*
G01X32850Y19200D02*
G01X33100Y19200D01*
G01X33350Y19200D02*
G01X33100Y18700D01*
G01X33100Y18700D02*
G01X32850Y19200D01*
G01X32850Y19200D02*
G01X33100Y18950D01*
G01X33100Y18950D02*
G01X33350Y19200D01*
G01X33350Y19200D02*
G01X33100Y19200D01*
G01X33100Y19200D02*
G01X33100Y18950D01*
G54D10*
G01X26400Y1000D02*
G01X25900Y1000D01*
G54D29*
G01X14560Y17950D02*
G01X14989Y17950D01*
G01X14560Y17950D02*
G01X14560Y18092D01*
G01X14581Y18155D01*
G01X14622Y18194D01*
G01X14663Y18215D01*
G01X14723Y18236D01*
G01X14826Y18236D01*
G01X14888Y18215D01*
G01X14928Y18194D01*
G01X14969Y18155D01*
G01X14989Y18092D01*
G01X14989Y17950D01*
G01X14642Y18371D02*
G01X14622Y18411D01*
G01X14560Y18473D01*
G01X14989Y18473D01*
G01X20050Y16200D02*
G01X20050Y15894D01*
G01X20069Y15832D01*
G01X20110Y15790D01*
G01X20172Y15771D01*
G01X20214Y15771D01*
G01X20275Y15790D01*
G01X20315Y15832D01*
G01X20335Y15894D01*
G01X20335Y16200D01*
G01X20471Y16119D02*
G01X20511Y16138D01*
G01X20573Y16200D01*
G01X20573Y15771D01*
G01X20000Y10200D02*
G01X20000Y9894D01*
G01X20019Y9832D01*
G01X20060Y9790D01*
G01X20122Y9771D01*
G01X20164Y9771D01*
G01X20225Y9790D01*
G01X20265Y9832D01*
G01X20285Y9894D01*
G01X20285Y10200D01*
G01X20667Y10200D02*
G01X20461Y10200D01*
G01X20442Y10015D01*
G01X20461Y10036D01*
G01X20523Y10057D01*
G01X20585Y10057D01*
G01X20646Y10036D01*
G01X20686Y9996D01*
G01X20707Y9934D01*
G01X20707Y9894D01*
G01X20686Y9832D01*
G01X20646Y9790D01*
G01X20585Y9771D01*
G01X20523Y9771D01*
G01X20461Y9790D01*
G01X20442Y9811D01*
G01X20421Y9853D01*
G01X20050Y7200D02*
G01X20050Y6892D01*
G01X20069Y6832D01*
G01X20110Y6790D01*
G01X20172Y6769D01*
G01X20214Y6769D01*
G01X20275Y6790D01*
G01X20315Y6832D01*
G01X20335Y6892D01*
G01X20335Y7200D01*
G01X20717Y7138D02*
G01X20696Y7180D01*
G01X20635Y7200D01*
G01X20593Y7200D01*
G01X20532Y7180D01*
G01X20492Y7117D01*
G01X20471Y7015D01*
G01X20471Y6913D01*
G01X20492Y6832D01*
G01X20532Y6790D01*
G01X20593Y6769D01*
G01X20614Y6769D01*
G01X20676Y6790D01*
G01X20717Y6832D01*
G01X20736Y6892D01*
G01X20736Y6913D01*
G01X20717Y6975D01*
G01X20676Y7015D01*
G01X20614Y7036D01*
G01X20593Y7036D01*
G01X20532Y7015D01*
G01X20492Y6975D01*
G01X20471Y6913D01*
G01X20050Y13199D02*
G01X20050Y12892D01*
G01X20069Y12831D01*
G01X20110Y12790D01*
G01X20172Y12769D01*
G01X20214Y12769D01*
G01X20275Y12790D01*
G01X20315Y12831D01*
G01X20335Y12892D01*
G01X20335Y13199D01*
G01X20471Y13117D02*
G01X20511Y13138D01*
G01X20573Y13199D01*
G01X20573Y12769D01*
G01X20831Y13199D02*
G01X20769Y13179D01*
G01X20728Y13117D01*
G01X20709Y13015D01*
G01X20709Y12954D01*
G01X20728Y12851D01*
G01X20769Y12790D01*
G01X20831Y12769D01*
G01X20872Y12769D01*
G01X20934Y12790D01*
G01X20975Y12851D01*
G01X20994Y12954D01*
G01X20994Y13015D01*
G01X20975Y13117D01*
G01X20934Y13179D01*
G01X20872Y13199D01*
G01X20831Y13199D01*
G01X24350Y10200D02*
G01X24350Y9894D01*
G01X24369Y9832D01*
G01X24410Y9790D01*
G01X24472Y9771D01*
G01X24514Y9771D01*
G01X24575Y9790D01*
G01X24615Y9832D01*
G01X24635Y9894D01*
G01X24635Y10200D01*
G01X24873Y10200D02*
G01X24811Y10180D01*
G01X24792Y10138D01*
G01X24792Y10098D01*
G01X24811Y10057D01*
G01X24852Y10036D01*
G01X24935Y10015D01*
G01X24996Y9996D01*
G01X25036Y9955D01*
G01X25057Y9913D01*
G01X25057Y9853D01*
G01X25036Y9811D01*
G01X25017Y9790D01*
G01X24955Y9771D01*
G01X24873Y9771D01*
G01X24811Y9790D01*
G01X24792Y9811D01*
G01X24771Y9853D01*
G01X24771Y9913D01*
G01X24792Y9955D01*
G01X24832Y9996D01*
G01X24893Y10015D01*
G01X24976Y10036D01*
G01X25017Y10057D01*
G01X25036Y10098D01*
G01X25036Y10138D01*
G01X25017Y10180D01*
G01X24955Y10200D01*
G01X24873Y10200D01*
G01X36450Y16078D02*
G01X36450Y15773D01*
G01X36469Y15711D01*
G01X36510Y15669D01*
G01X36572Y15650D01*
G01X36614Y15650D01*
G01X36675Y15669D01*
G01X36715Y15711D01*
G01X36735Y15773D01*
G01X36735Y16078D01*
G01X37136Y15936D02*
G01X37117Y15875D01*
G01X37076Y15834D01*
G01X37014Y15813D01*
G01X36993Y15813D01*
G01X36932Y15834D01*
G01X36892Y15875D01*
G01X36871Y15936D01*
G01X36871Y15957D01*
G01X36892Y16017D01*
G01X36932Y16059D01*
G01X36993Y16078D01*
G01X37014Y16078D01*
G01X37076Y16059D01*
G01X37117Y16017D01*
G01X37136Y15936D01*
G01X37136Y15834D01*
G01X37117Y15732D01*
G01X37076Y15669D01*
G01X37014Y15650D01*
G01X36973Y15650D01*
G01X36911Y15669D01*
G01X36892Y15711D01*
G54D25*
G01X32014Y7805D02*
G01X32777Y7805D01*
G01X32014Y7550D02*
G01X32014Y8059D01*
G01X32014Y8298D02*
G01X32777Y8298D01*
G01X32014Y8538D02*
G01X32777Y8538D01*
G01X32014Y8538D02*
G01X32777Y9048D01*
G01X32014Y9048D02*
G01X32777Y9048D01*
G01X32014Y9288D02*
G01X32377Y9578D01*
G01X32777Y9578D01*
G01X32014Y9869D02*
G01X32377Y9578D01*
G01X32014Y10669D02*
G01X32777Y10669D01*
G01X32014Y10669D02*
G01X32014Y10996D01*
G01X32050Y11105D01*
G01X32085Y11142D01*
G01X32159Y11178D01*
G01X32231Y11178D01*
G01X32305Y11142D01*
G01X32340Y11105D01*
G01X32377Y10996D01*
G01X32377Y10669D01*
G01X32377Y10925D02*
G01X32777Y11178D01*
G01X32014Y11673D02*
G01X32777Y11673D01*
G01X32014Y11419D02*
G01X32014Y11928D01*
G01X32194Y12713D02*
G01X32122Y12676D01*
G01X32050Y12605D01*
G01X32014Y12532D01*
G01X32014Y12386D01*
G01X32050Y12313D01*
G01X32122Y12240D01*
G01X32194Y12205D01*
G01X32305Y12167D01*
G01X32485Y12167D01*
G01X32594Y12205D01*
G01X32668Y12240D01*
G01X32740Y12313D01*
G01X32777Y12386D01*
G01X32777Y12532D01*
G01X32740Y12605D01*
G01X32668Y12676D01*
G01X32594Y12713D01*
G01X33731Y13550D02*
G01X34114Y13550D01*
G01X33731Y13550D02*
G01X33731Y13713D01*
G01X33750Y13767D01*
G01X33768Y13786D01*
G01X33805Y13805D01*
G01X33840Y13805D01*
G01X33877Y13786D01*
G01X33894Y13767D01*
G01X33914Y13713D01*
G01X33914Y13550D02*
G01X33914Y13713D01*
G01X33931Y13767D01*
G01X33950Y13786D01*
G01X33985Y13805D01*
G01X34040Y13805D01*
G01X34077Y13786D01*
G01X34094Y13767D01*
G01X34114Y13713D01*
G01X34114Y13550D01*
G01X33731Y14069D02*
G01X34114Y13925D01*
G01X33731Y14069D02*
G01X34114Y14215D01*
G01X33985Y13978D02*
G01X33985Y14161D01*
G01X33731Y14463D02*
G01X34114Y14463D01*
G01X33731Y14334D02*
G01X33731Y14590D01*
G01X36785Y13805D02*
G01X36750Y13767D01*
G01X36731Y13713D01*
G01X36731Y13640D01*
G01X36750Y13586D01*
G01X36785Y13550D01*
G01X36822Y13550D01*
G01X36859Y13567D01*
G01X36877Y13586D01*
G01X36894Y13623D01*
G01X36931Y13732D01*
G01X36950Y13767D01*
G01X36968Y13786D01*
G01X37005Y13805D01*
G01X37059Y13805D01*
G01X37094Y13767D01*
G01X37114Y13713D01*
G01X37114Y13640D01*
G01X37094Y13586D01*
G01X37059Y13550D01*
G01X36731Y13925D02*
G01X37114Y13925D01*
G01X36731Y13925D02*
G01X36731Y14051D01*
G01X36750Y14105D01*
G01X36785Y14142D01*
G01X36822Y14161D01*
G01X36877Y14178D01*
G01X36968Y14178D01*
G01X37022Y14161D01*
G01X37059Y14142D01*
G01X37094Y14105D01*
G01X37114Y14051D01*
G01X37114Y13925D01*
G01X36731Y14444D02*
G01X37114Y14298D01*
G01X36731Y14444D02*
G01X37114Y14590D01*
G01X36985Y14353D02*
G01X36985Y14534D01*
G01X37785Y13805D02*
G01X37750Y13767D01*
G01X37731Y13713D01*
G01X37731Y13640D01*
G01X37750Y13586D01*
G01X37785Y13550D01*
G01X37822Y13550D01*
G01X37859Y13567D01*
G01X37877Y13586D01*
G01X37894Y13623D01*
G01X37931Y13732D01*
G01X37950Y13767D01*
G01X37968Y13786D01*
G01X38005Y13805D01*
G01X38059Y13805D01*
G01X38094Y13767D01*
G01X38114Y13713D01*
G01X38114Y13640D01*
G01X38094Y13586D01*
G01X38059Y13550D01*
G01X37822Y14196D02*
G01X37785Y14178D01*
G01X37750Y14142D01*
G01X37731Y14105D01*
G01X37731Y14034D01*
G01X37750Y13996D01*
G01X37785Y13961D01*
G01X37822Y13942D01*
G01X37877Y13925D01*
G01X37968Y13925D01*
G01X38022Y13942D01*
G01X38059Y13961D01*
G01X38094Y13996D01*
G01X38114Y14034D01*
G01X38114Y14105D01*
G01X38094Y14142D01*
G01X38059Y14178D01*
G01X38022Y14196D01*
G01X37731Y14317D02*
G01X38114Y14317D01*
G01X38114Y14317D02*
G01X38114Y14534D01*
G01X39785Y13805D02*
G01X39750Y13767D01*
G01X39731Y13713D01*
G01X39731Y13640D01*
G01X39750Y13586D01*
G01X39785Y13550D01*
G01X39822Y13550D01*
G01X39859Y13567D01*
G01X39877Y13586D01*
G01X39894Y13623D01*
G01X39931Y13732D01*
G01X39950Y13767D01*
G01X39968Y13786D01*
G01X40005Y13805D01*
G01X40059Y13805D01*
G01X40094Y13767D01*
G01X40114Y13713D01*
G01X40114Y13640D01*
G01X40094Y13586D01*
G01X40059Y13550D01*
G01X39731Y14034D02*
G01X39750Y13996D01*
G01X39785Y13961D01*
G01X39822Y13942D01*
G01X39877Y13925D01*
G01X39968Y13925D01*
G01X40022Y13942D01*
G01X40059Y13961D01*
G01X40094Y13996D01*
G01X40114Y14034D01*
G01X40114Y14105D01*
G01X40094Y14142D01*
G01X40059Y14178D01*
G01X40022Y14196D01*
G01X39968Y14215D01*
G01X39877Y14215D01*
G01X39822Y14196D01*
G01X39785Y14178D01*
G01X39750Y14142D01*
G01X39731Y14105D01*
G01X39731Y14034D01*
G01X40040Y14088D02*
G01X40150Y14196D01*
G01X33822Y6323D02*
G01X33785Y6305D01*
G01X33750Y6267D01*
G01X33731Y6232D01*
G01X33731Y6159D01*
G01X33750Y6123D01*
G01X33785Y6086D01*
G01X33822Y6067D01*
G01X33877Y6050D01*
G01X33968Y6050D01*
G01X34022Y6067D01*
G01X34059Y6086D01*
G01X34094Y6123D01*
G01X34114Y6159D01*
G01X34114Y6232D01*
G01X34094Y6267D01*
G01X34059Y6305D01*
G01X34022Y6323D01*
G01X33968Y6323D01*
G01X33968Y6232D02*
G01X33968Y6323D01*
G01X33731Y6442D02*
G01X34114Y6442D01*
G01X33731Y6442D02*
G01X34114Y6696D01*
G01X33731Y6696D02*
G01X34114Y6696D01*
G01X33731Y6817D02*
G01X34114Y6817D01*
G01X33731Y6817D02*
G01X33731Y6944D01*
G01X33750Y6998D01*
G01X33785Y7034D01*
G01X33822Y7053D01*
G01X33877Y7071D01*
G01X33968Y7071D01*
G01X34022Y7053D01*
G01X34059Y7034D01*
G01X34094Y6998D01*
G01X34114Y6944D01*
G01X34114Y6817D01*
G01X34731Y6050D02*
G01X35114Y6194D01*
G01X34731Y6340D02*
G01X35114Y6194D01*
G01X34822Y6734D02*
G01X34785Y6715D01*
G01X34750Y6678D01*
G01X34731Y6642D01*
G01X34731Y6569D01*
G01X34750Y6534D01*
G01X34785Y6496D01*
G01X34822Y6478D01*
G01X34877Y6461D01*
G01X34968Y6461D01*
G01X35022Y6478D01*
G01X35059Y6496D01*
G01X35094Y6534D01*
G01X35114Y6569D01*
G01X35114Y6642D01*
G01X35094Y6678D01*
G01X35059Y6715D01*
G01X35022Y6734D01*
G01X34822Y7126D02*
G01X34785Y7107D01*
G01X34750Y7071D01*
G01X34731Y7034D01*
G01X34731Y6963D01*
G01X34750Y6926D01*
G01X34785Y6890D01*
G01X34822Y6871D01*
G01X34877Y6853D01*
G01X34968Y6853D01*
G01X35022Y6871D01*
G01X35059Y6890D01*
G01X35094Y6926D01*
G01X35114Y6963D01*
G01X35114Y7034D01*
G01X35094Y7071D01*
G01X35059Y7107D01*
G01X35022Y7126D01*
G01X35785Y6305D02*
G01X35750Y6267D01*
G01X35731Y6213D01*
G01X35731Y6140D01*
G01X35750Y6086D01*
G01X35785Y6050D01*
G01X35822Y6050D01*
G01X35859Y6067D01*
G01X35877Y6086D01*
G01X35894Y6123D01*
G01X35931Y6232D01*
G01X35950Y6267D01*
G01X35968Y6286D01*
G01X36005Y6305D01*
G01X36059Y6305D01*
G01X36094Y6267D01*
G01X36114Y6213D01*
G01X36114Y6140D01*
G01X36094Y6086D01*
G01X36059Y6050D01*
G01X35731Y6425D02*
G01X36114Y6425D01*
G01X35731Y6425D02*
G01X35731Y6551D01*
G01X35750Y6605D01*
G01X35785Y6642D01*
G01X35822Y6661D01*
G01X35877Y6678D01*
G01X35968Y6678D01*
G01X36022Y6661D01*
G01X36059Y6642D01*
G01X36094Y6605D01*
G01X36114Y6551D01*
G01X36114Y6425D01*
G01X35731Y6944D02*
G01X36114Y6798D01*
G01X35731Y6944D02*
G01X36114Y7090D01*
G01X35985Y6853D02*
G01X35985Y7034D01*
G01X36785Y6305D02*
G01X36750Y6267D01*
G01X36731Y6213D01*
G01X36731Y6140D01*
G01X36750Y6086D01*
G01X36785Y6050D01*
G01X36822Y6050D01*
G01X36859Y6067D01*
G01X36877Y6086D01*
G01X36894Y6123D01*
G01X36931Y6232D01*
G01X36950Y6267D01*
G01X36968Y6286D01*
G01X37005Y6305D01*
G01X37059Y6305D01*
G01X37094Y6267D01*
G01X37114Y6213D01*
G01X37114Y6140D01*
G01X37094Y6086D01*
G01X37059Y6050D01*
G01X36822Y6696D02*
G01X36785Y6678D01*
G01X36750Y6642D01*
G01X36731Y6605D01*
G01X36731Y6534D01*
G01X36750Y6496D01*
G01X36785Y6461D01*
G01X36822Y6442D01*
G01X36877Y6425D01*
G01X36968Y6425D01*
G01X37022Y6442D01*
G01X37059Y6461D01*
G01X37094Y6496D01*
G01X37114Y6534D01*
G01X37114Y6605D01*
G01X37094Y6642D01*
G01X37059Y6678D01*
G01X37022Y6696D01*
G01X36731Y6817D02*
G01X37114Y6817D01*
G01X37114Y6817D02*
G01X37114Y7034D01*
G01X34700Y10876D02*
G01X34700Y10305D01*
G01X34700Y10305D02*
G01X35027Y10305D01*
G01X35206Y10876D02*
G01X35206Y10305D01*
G01X35577Y10876D02*
G01X35577Y10305D01*
G01X35386Y10876D02*
G01X35768Y10876D01*
G01X35948Y10876D02*
G01X35948Y10305D01*
G01X36331Y10876D02*
G01X36331Y10305D01*
G01X35948Y10605D02*
G01X36331Y10605D01*
G01X36510Y10876D02*
G01X36510Y10305D01*
G01X36690Y10876D02*
G01X36690Y10467D01*
G01X36718Y10386D01*
G01X36772Y10332D01*
G01X36855Y10305D01*
G01X36909Y10305D01*
G01X36990Y10332D01*
G01X37044Y10386D01*
G01X37072Y10467D01*
G01X37072Y10876D01*
G01X37252Y10876D02*
G01X37252Y10305D01*
G01X37252Y10876D02*
G01X37471Y10305D01*
G01X37689Y10876D02*
G01X37471Y10305D01*
G01X37689Y10876D02*
G01X37689Y10305D01*
G01X38343Y10876D02*
G01X38643Y10876D01*
G01X38480Y10659D01*
G01X38561Y10659D01*
G01X38615Y10632D01*
G01X38643Y10605D01*
G01X38671Y10523D01*
G01X38671Y10467D01*
G01X38643Y10386D01*
G01X38589Y10332D01*
G01X38506Y10305D01*
G01X38425Y10305D01*
G01X38343Y10332D01*
G01X38315Y10359D01*
G01X38289Y10413D01*
G01X38851Y10876D02*
G01X39068Y10305D01*
G01X39286Y10876D02*
G01X39068Y10305D01*
G01X38731Y13550D02*
G01X39114Y13550D01*
G01X38731Y13550D02*
G01X38731Y13676D01*
G01X38750Y13732D01*
G01X38785Y13767D01*
G01X38822Y13786D01*
G01X38877Y13805D01*
G01X38968Y13805D01*
G01X39022Y13786D01*
G01X39059Y13767D01*
G01X39094Y13732D01*
G01X39114Y13676D01*
G01X39114Y13550D01*
G01X38785Y14178D02*
G01X38750Y14142D01*
G01X38731Y14088D01*
G01X38731Y14015D01*
G01X38750Y13961D01*
G01X38785Y13925D01*
G01X38822Y13925D01*
G01X38859Y13942D01*
G01X38877Y13961D01*
G01X38894Y13996D01*
G01X38931Y14105D01*
G01X38950Y14142D01*
G01X38968Y14161D01*
G01X39005Y14178D01*
G01X39059Y14178D01*
G01X39094Y14142D01*
G01X39114Y14088D01*
G01X39114Y14015D01*
G01X39094Y13961D01*
G01X39059Y13925D01*
G01X35700Y13473D02*
G01X36081Y13619D01*
G01X35700Y13765D02*
G01X36081Y13619D01*
G01X35790Y14157D02*
G01X35754Y14138D01*
G01X35718Y14103D01*
G01X35700Y14067D01*
G01X35700Y13994D01*
G01X35718Y13957D01*
G01X35754Y13921D01*
G01X35790Y13903D01*
G01X35844Y13884D01*
G01X35935Y13884D01*
G01X35990Y13903D01*
G01X36027Y13921D01*
G01X36063Y13957D01*
G01X36081Y13994D01*
G01X36081Y14067D01*
G01X36063Y14103D01*
G01X36027Y14138D01*
G01X35990Y14157D01*
G01X35790Y14550D02*
G01X35754Y14532D01*
G01X35718Y14496D01*
G01X35700Y14459D01*
G01X35700Y14386D01*
G01X35718Y14350D01*
G01X35754Y14313D01*
G01X35790Y14296D01*
G01X35844Y14278D01*
G01X35935Y14278D01*
G01X35990Y14296D01*
G01X36027Y14313D01*
G01X36063Y14350D01*
G01X36081Y14386D01*
G01X36081Y14459D01*
G01X36063Y14496D01*
G01X36027Y14532D01*
G01X35990Y14550D01*
G01X34822Y13823D02*
G01X34785Y13805D01*
G01X34750Y13767D01*
G01X34731Y13732D01*
G01X34731Y13659D01*
G01X34750Y13623D01*
G01X34785Y13586D01*
G01X34822Y13567D01*
G01X34877Y13550D01*
G01X34968Y13550D01*
G01X35022Y13567D01*
G01X35059Y13586D01*
G01X35094Y13623D01*
G01X35114Y13659D01*
G01X35114Y13732D01*
G01X35094Y13767D01*
G01X35059Y13805D01*
G01X35022Y13823D01*
G01X34968Y13823D01*
G01X34968Y13732D02*
G01X34968Y13823D01*
G01X34731Y13942D02*
G01X35114Y13942D01*
G01X34731Y13942D02*
G01X35114Y14196D01*
G01X34731Y14196D02*
G01X35114Y14196D01*
G01X34731Y14317D02*
G01X35114Y14317D01*
G01X34731Y14317D02*
G01X34731Y14444D01*
G01X34750Y14498D01*
G01X34785Y14534D01*
G01X34822Y14553D01*
G01X34877Y14571D01*
G01X34968Y14571D01*
G01X35022Y14553D01*
G01X35059Y14534D01*
G01X35094Y14498D01*
G01X35114Y14444D01*
G01X35114Y14317D01*
G01X37731Y6050D02*
G01X38114Y6050D01*
G01X37731Y6050D02*
G01X37731Y6176D01*
G01X37750Y6232D01*
G01X37785Y6267D01*
G01X37822Y6286D01*
G01X37877Y6305D01*
G01X37968Y6305D01*
G01X38022Y6286D01*
G01X38059Y6267D01*
G01X38094Y6232D01*
G01X38114Y6176D01*
G01X38114Y6050D01*
G01X37785Y6678D02*
G01X37750Y6642D01*
G01X37731Y6588D01*
G01X37731Y6515D01*
G01X37750Y6461D01*
G01X37785Y6425D01*
G01X37822Y6425D01*
G01X37859Y6442D01*
G01X37877Y6461D01*
G01X37894Y6496D01*
G01X37931Y6605D01*
G01X37950Y6642D01*
G01X37968Y6661D01*
G01X38005Y6678D01*
G01X38059Y6678D01*
G01X38094Y6642D01*
G01X38114Y6588D01*
G01X38114Y6515D01*
G01X38094Y6461D01*
G01X38059Y6425D01*
G54D29*
G01X27835Y12839D02*
G01X27794Y12880D01*
G01X27733Y12900D01*
G01X27651Y12900D01*
G01X27590Y12880D01*
G01X27549Y12839D01*
G01X27549Y12798D01*
G01X27569Y12757D01*
G01X27590Y12737D01*
G01X27631Y12716D01*
G01X27754Y12675D01*
G01X27794Y12655D01*
G01X27815Y12635D01*
G01X27835Y12594D01*
G01X27835Y12532D01*
G01X27794Y12491D01*
G01X27733Y12471D01*
G01X27651Y12471D01*
G01X27590Y12491D01*
G01X27549Y12532D01*
G01X28277Y12798D02*
G01X28257Y12839D01*
G01X28216Y12880D01*
G01X28175Y12900D01*
G01X28093Y12900D01*
G01X28052Y12880D01*
G01X28011Y12839D01*
G01X27991Y12798D01*
G01X27970Y12737D01*
G01X27970Y12635D01*
G01X27991Y12573D01*
G01X28011Y12532D01*
G01X28052Y12491D01*
G01X28093Y12471D01*
G01X28175Y12471D01*
G01X28216Y12491D01*
G01X28257Y12532D01*
G01X28277Y12573D01*
G01X28277Y12635D01*
G01X28175Y12635D02*
G01X28277Y12635D01*
G01X28412Y12819D02*
G01X28453Y12839D01*
G01X28514Y12900D01*
G01X28514Y12471D01*
G01X52650Y3700D02*
G01X52650Y3392D01*
G01X52669Y3332D01*
G01X52710Y3290D01*
G01X52772Y3271D01*
G01X52813Y3271D01*
G01X52875Y3290D01*
G01X52915Y3332D01*
G01X52935Y3392D01*
G01X52935Y3700D01*
G01X53276Y3700D02*
G01X53071Y3413D01*
G01X53377Y3413D01*
G01X53276Y3700D02*
G01X53276Y3271D01*
G01X2549Y18178D02*
G01X2835Y17750D01*
G01X2835Y18178D02*
G01X2549Y17750D01*
G01X19732Y3242D02*
G01X20038Y3242D01*
G01X20100Y3262D01*
G01X20141Y3303D01*
G01X20161Y3364D01*
G01X20161Y3405D01*
G01X20141Y3467D01*
G01X20100Y3508D01*
G01X20038Y3528D01*
G01X19732Y3528D01*
G01X19834Y3684D02*
G01X19813Y3684D01*
G01X19772Y3704D01*
G01X19752Y3724D01*
G01X19732Y3765D01*
G01X19732Y3847D01*
G01X19752Y3888D01*
G01X19772Y3909D01*
G01X19813Y3929D01*
G01X19854Y3929D01*
G01X19895Y3909D01*
G01X19957Y3868D01*
G01X20161Y3663D01*
G01X20161Y3949D01*
G01X20561Y6388D02*
G01X20561Y5959D01*
G01X20561Y6388D02*
G01X20746Y6388D01*
G01X20806Y6369D01*
G01X20827Y6348D01*
G01X20847Y6307D01*
G01X20847Y6267D01*
G01X20827Y6226D01*
G01X20806Y6205D01*
G01X20746Y6184D01*
G01X20561Y6184D01*
G01X20705Y6184D02*
G01X20847Y5959D01*
G01X21228Y6388D02*
G01X21023Y6388D01*
G01X21003Y6205D01*
G01X21023Y6226D01*
G01X21085Y6246D01*
G01X21147Y6246D01*
G01X21207Y6226D01*
G01X21248Y6184D01*
G01X21269Y6123D01*
G01X21269Y6082D01*
G01X21248Y6021D01*
G01X21207Y5980D01*
G01X21147Y5959D01*
G01X21085Y5959D01*
G01X21023Y5980D01*
G01X21003Y6001D01*
G01X20982Y6042D01*
G01X6271Y11850D02*
G01X6577Y11850D01*
G01X6639Y11869D01*
G01X6680Y11911D01*
G01X6700Y11973D01*
G01X6700Y12013D01*
G01X6680Y12075D01*
G01X6639Y12115D01*
G01X6577Y12136D01*
G01X6271Y12136D01*
G01X6271Y12557D02*
G01X6700Y12353D01*
G01X6271Y12271D02*
G01X6271Y12557D01*
G54D25*
G01X7864Y6550D02*
G01X8627Y6550D01*
G01X7864Y6550D02*
G01X7864Y6876D01*
G01X7900Y6986D01*
G01X7935Y7023D01*
G01X8009Y7059D01*
G01X8081Y7059D01*
G01X8155Y7023D01*
G01X8190Y6986D01*
G01X8227Y6876D01*
G01X8227Y6550D01*
G01X8227Y6805D02*
G01X8627Y7059D01*
G01X7864Y7298D02*
G01X8627Y7807D01*
G01X7864Y7807D02*
G01X8627Y7298D01*
G01X8964Y6905D02*
G01X9727Y6905D01*
G01X8964Y6650D02*
G01X8964Y7159D01*
G01X8964Y7398D02*
G01X9727Y7907D01*
G01X8964Y7907D02*
G01X9727Y7398D01*
G01X10244Y7094D02*
G01X10172Y7059D01*
G01X10100Y6986D01*
G01X10064Y6913D01*
G01X10064Y6767D01*
G01X10100Y6694D01*
G01X10172Y6623D01*
G01X10244Y6586D01*
G01X10355Y6550D01*
G01X10535Y6550D01*
G01X10644Y6586D01*
G01X10718Y6623D01*
G01X10790Y6694D01*
G01X10827Y6767D01*
G01X10827Y6913D01*
G01X10790Y6986D01*
G01X10718Y7059D01*
G01X10644Y7094D01*
G01X10535Y7094D01*
G01X10535Y6913D02*
G01X10535Y7094D01*
G01X10064Y7334D02*
G01X10827Y7334D01*
G01X10064Y7334D02*
G01X10827Y7844D01*
G01X10064Y7844D02*
G01X10827Y7844D01*
G01X10064Y8084D02*
G01X10827Y8084D01*
G01X10064Y8084D02*
G01X10064Y8338D01*
G01X10100Y8448D01*
G01X10172Y8521D01*
G01X10244Y8557D01*
G01X10355Y8594D01*
G01X10535Y8594D01*
G01X10644Y8557D01*
G01X10718Y8521D01*
G01X10790Y8448D01*
G01X10827Y8338D01*
G01X10827Y8084D01*
G01X11064Y6750D02*
G01X11827Y7040D01*
G01X11064Y7332D02*
G01X11827Y7040D01*
G01X11244Y8117D02*
G01X11172Y8080D01*
G01X11100Y8007D01*
G01X11064Y7934D01*
G01X11064Y7790D01*
G01X11100Y7717D01*
G01X11172Y7644D01*
G01X11244Y7607D01*
G01X11355Y7571D01*
G01X11535Y7571D01*
G01X11644Y7607D01*
G01X11718Y7644D01*
G01X11790Y7717D01*
G01X11827Y7790D01*
G01X11827Y7934D01*
G01X11790Y8007D01*
G01X11718Y8080D01*
G01X11644Y8117D01*
G01X11244Y8903D02*
G01X11172Y8865D01*
G01X11100Y8794D01*
G01X11064Y8721D01*
G01X11064Y8575D01*
G01X11100Y8503D01*
G01X11172Y8430D01*
G01X11244Y8394D01*
G01X11355Y8357D01*
G01X11535Y8357D01*
G01X11644Y8394D01*
G01X11718Y8430D01*
G01X11790Y8503D01*
G01X11827Y8575D01*
G01X11827Y8721D01*
G01X11790Y8794D01*
G01X11718Y8865D01*
G01X11644Y8903D01*
G54D29*
G01X31250Y22334D02*
G01X31250Y22027D01*
G01X31269Y21965D01*
G01X31310Y21925D01*
G01X31372Y21905D01*
G01X31414Y21905D01*
G01X31475Y21925D01*
G01X31515Y21965D01*
G01X31535Y22027D01*
G01X31535Y22334D01*
G01X31711Y22334D02*
G01X31936Y22334D01*
G01X31814Y22171D01*
G01X31876Y22171D01*
G01X31917Y22150D01*
G01X31936Y22130D01*
G01X31957Y22067D01*
G01X31957Y22027D01*
G01X31936Y21965D01*
G01X31896Y21925D01*
G01X31835Y21905D01*
G01X31773Y21905D01*
G01X31711Y21925D01*
G01X31692Y21946D01*
G01X31671Y21986D01*
G01X31898Y17846D02*
G01X32338Y17846D01*
G01X31898Y17700D02*
G01X31898Y17992D01*
G01X31898Y18130D02*
G01X32338Y18423D01*
G01X31898Y18423D02*
G01X32338Y18130D01*
G01X32898Y17700D02*
G01X33338Y17700D01*
G01X32898Y17700D02*
G01X32898Y17888D01*
G01X32919Y17951D01*
G01X32940Y17971D01*
G01X32982Y17992D01*
G01X33025Y17992D01*
G01X33065Y17971D01*
G01X33086Y17951D01*
G01X33107Y17888D01*
G01X33107Y17700D01*
G01X33107Y17846D02*
G01X33338Y17992D01*
G01X32898Y18130D02*
G01X33338Y18423D01*
G01X32898Y18423D02*
G01X33338Y18130D01*
G01X20898Y2200D02*
G01X21338Y2200D01*
G01X20898Y2200D02*
G01X20898Y2388D01*
G01X20919Y2451D01*
G01X20940Y2471D01*
G01X20982Y2492D01*
G01X21025Y2492D01*
G01X21065Y2471D01*
G01X21086Y2451D01*
G01X21107Y2388D01*
G01X21107Y2200D01*
G01X21107Y2346D02*
G01X21338Y2492D01*
G01X20898Y2630D02*
G01X21338Y2630D01*
G01X20898Y2630D02*
G01X20898Y2903D01*
G01X21107Y2630D02*
G01X21107Y2798D01*
G01X21338Y2630D02*
G01X21338Y2903D01*
G01X20961Y3332D02*
G01X20919Y3290D01*
G01X20898Y3228D01*
G01X20898Y3144D01*
G01X20919Y3082D01*
G01X20961Y3040D01*
G01X21003Y3040D01*
G01X21044Y3061D01*
G01X21065Y3082D01*
G01X21086Y3123D01*
G01X21128Y3250D01*
G01X21150Y3290D01*
G01X21171Y3311D01*
G01X21213Y3332D01*
G01X21275Y3332D01*
G01X21317Y3290D01*
G01X21338Y3228D01*
G01X21338Y3144D01*
G01X21317Y3082D01*
G01X21275Y3040D01*
G01X20898Y3471D02*
G01X21338Y3471D01*
G01X20898Y3471D02*
G01X20898Y3742D01*
G01X21107Y3471D02*
G01X21107Y3638D01*
G01X21338Y3471D02*
G01X21338Y3742D01*
G01X20898Y4026D02*
G01X21338Y4026D01*
G01X20898Y3880D02*
G01X20898Y4173D01*
G01X21898Y2242D02*
G01X21898Y2471D01*
G01X22065Y2346D01*
G01X22065Y2409D01*
G01X22086Y2451D01*
G01X22107Y2471D01*
G01X22171Y2492D01*
G01X22213Y2492D01*
G01X22275Y2471D01*
G01X22317Y2430D01*
G01X22338Y2367D01*
G01X22338Y2305D01*
G01X22317Y2242D01*
G01X22296Y2221D01*
G01X22255Y2200D01*
G01X21898Y2630D02*
G01X22338Y2798D01*
G01X21898Y2965D02*
G01X22338Y2798D01*
G01X21898Y3144D02*
G01X21898Y3375D01*
G01X22065Y3250D01*
G01X22065Y3311D01*
G01X22086Y3353D01*
G01X22107Y3375D01*
G01X22171Y3396D01*
G01X22213Y3396D01*
G01X22275Y3375D01*
G01X22317Y3332D01*
G01X22338Y3271D01*
G01X22338Y3207D01*
G01X22317Y3144D01*
G01X22296Y3123D01*
G01X22255Y3103D01*
G01X32998Y19525D02*
G01X33019Y19463D01*
G01X33082Y19421D01*
G01X33186Y19400D01*
G01X33250Y19400D01*
G01X33355Y19421D01*
G01X33417Y19463D01*
G01X33438Y19525D01*
G01X33438Y19567D01*
G01X33417Y19630D01*
G01X33355Y19671D01*
G01X33250Y19692D01*
G01X33186Y19692D01*
G01X33082Y19671D01*
G01X33019Y19630D01*
G01X32998Y19567D01*
G01X32998Y19525D01*
G01X31982Y19500D02*
G01X31961Y19542D01*
G01X31898Y19605D01*
G01X32338Y19605D01*
G01X31003Y19421D02*
G01X30982Y19421D01*
G01X30940Y19442D01*
G01X30919Y19463D01*
G01X30898Y19505D01*
G01X30898Y19588D01*
G01X30919Y19630D01*
G01X30940Y19651D01*
G01X30982Y19671D01*
G01X31025Y19671D01*
G01X31065Y19651D01*
G01X31128Y19609D01*
G01X31338Y19400D01*
G01X31338Y19692D01*
G01X29998Y19442D02*
G01X29998Y19671D01*
G01X30165Y19546D01*
G01X30165Y19609D01*
G01X30186Y19651D01*
G01X30207Y19671D01*
G01X30271Y19692D01*
G01X30313Y19692D01*
G01X30375Y19671D01*
G01X30417Y19630D01*
G01X30438Y19567D01*
G01X30438Y19505D01*
G01X30417Y19442D01*
G01X30396Y19421D01*
G01X30355Y19400D01*
G01X28998Y19609D02*
G01X29292Y19400D01*
G01X29292Y19713D01*
G01X28998Y19609D02*
G01X29438Y19609D01*
G01X27898Y19651D02*
G01X27898Y19442D01*
G01X28086Y19421D01*
G01X28065Y19442D01*
G01X28044Y19505D01*
G01X28044Y19567D01*
G01X28065Y19630D01*
G01X28107Y19671D01*
G01X28171Y19692D01*
G01X28213Y19692D01*
G01X28275Y19671D01*
G01X28317Y19630D01*
G01X28338Y19567D01*
G01X28338Y19505D01*
G01X28317Y19442D01*
G01X28296Y19421D01*
G01X28255Y19400D01*
G01X27061Y19651D02*
G01X27019Y19630D01*
G01X26998Y19567D01*
G01X26998Y19525D01*
G01X27019Y19463D01*
G01X27082Y19421D01*
G01X27186Y19400D01*
G01X27292Y19400D01*
G01X27375Y19421D01*
G01X27417Y19463D01*
G01X27438Y19525D01*
G01X27438Y19546D01*
G01X27417Y19609D01*
G01X27375Y19651D01*
G01X27313Y19671D01*
G01X27292Y19671D01*
G01X27228Y19651D01*
G01X27186Y19609D01*
G01X27165Y19546D01*
G01X27165Y19525D01*
G01X27186Y19463D01*
G01X27228Y19421D01*
G01X27292Y19400D01*
G01X25998Y19692D02*
G01X26438Y19484D01*
G01X25998Y19400D02*
G01X25998Y19692D01*
G01X24299Y19504D02*
G01X24320Y19441D01*
G01X24362Y19420D01*
G01X24404Y19420D01*
G01X24445Y19441D01*
G01X24466Y19483D01*
G01X24487Y19566D01*
G01X24508Y19629D01*
G01X24550Y19671D01*
G01X24592Y19692D01*
G01X24655Y19692D01*
G01X24696Y19671D01*
G01X24717Y19650D01*
G01X24738Y19587D01*
G01X24738Y19504D01*
G01X24717Y19441D01*
G01X24696Y19420D01*
G01X24655Y19399D01*
G01X24592Y19399D01*
G01X24550Y19420D01*
G01X24508Y19462D01*
G01X24487Y19524D01*
G01X24466Y19608D01*
G01X24445Y19650D01*
G01X24404Y19671D01*
G01X24362Y19671D01*
G01X24320Y19650D01*
G01X24299Y19587D01*
G01X24299Y19504D01*
G01X23445Y19671D02*
G01X23508Y19650D01*
G01X23550Y19608D01*
G01X23571Y19545D01*
G01X23571Y19524D01*
G01X23550Y19462D01*
G01X23508Y19420D01*
G01X23445Y19399D01*
G01X23425Y19399D01*
G01X23362Y19420D01*
G01X23320Y19462D01*
G01X23299Y19524D01*
G01X23299Y19545D01*
G01X23320Y19608D01*
G01X23362Y19650D01*
G01X23445Y19671D01*
G01X23550Y19671D01*
G01X23655Y19650D01*
G01X23717Y19608D01*
G01X23738Y19545D01*
G01X23738Y19504D01*
G01X23717Y19441D01*
G01X23675Y19420D01*
G01X22382Y19200D02*
G01X22361Y19242D01*
G01X22298Y19305D01*
G01X22737Y19305D01*
G01X22298Y19568D02*
G01X22319Y19505D01*
G01X22382Y19463D01*
G01X22486Y19443D01*
G01X22549Y19443D01*
G01X22654Y19463D01*
G01X22716Y19505D01*
G01X22737Y19568D01*
G01X22737Y19610D01*
G01X22716Y19673D01*
G01X22654Y19714D01*
G01X22549Y19735D01*
G01X22486Y19735D01*
G01X22382Y19714D01*
G01X22319Y19673D01*
G01X22298Y19610D01*
G01X22298Y19568D01*
G01X21383Y19400D02*
G01X21362Y19442D01*
G01X21299Y19505D01*
G01X21738Y19505D01*
G01X21383Y19643D02*
G01X21362Y19684D01*
G01X21299Y19747D01*
G01X21738Y19747D01*
G01X20383Y19199D02*
G01X20362Y19241D01*
G01X20299Y19304D01*
G01X20738Y19304D01*
G01X20404Y19462D02*
G01X20383Y19462D01*
G01X20341Y19483D01*
G01X20320Y19504D01*
G01X20299Y19546D01*
G01X20299Y19630D01*
G01X20320Y19672D01*
G01X20341Y19692D01*
G01X20383Y19713D01*
G01X20425Y19713D01*
G01X20466Y19692D01*
G01X20529Y19651D01*
G01X20738Y19442D01*
G01X20738Y19734D01*
G01X19382Y19200D02*
G01X19361Y19242D01*
G01X19298Y19305D01*
G01X19737Y19305D01*
G01X19298Y19484D02*
G01X19298Y19714D01*
G01X19465Y19589D01*
G01X19465Y19652D01*
G01X19486Y19693D01*
G01X19507Y19714D01*
G01X19570Y19735D01*
G01X19612Y19735D01*
G01X19674Y19714D01*
G01X19716Y19673D01*
G01X19737Y19610D01*
G01X19737Y19547D01*
G01X19716Y19484D01*
G01X19695Y19463D01*
G01X19654Y19443D01*
G01X27898Y2425D02*
G01X27919Y2363D01*
G01X27982Y2321D01*
G01X28086Y2300D01*
G01X28150Y2300D01*
G01X28255Y2321D01*
G01X28317Y2363D01*
G01X28338Y2425D01*
G01X28338Y2467D01*
G01X28317Y2530D01*
G01X28255Y2571D01*
G01X28150Y2592D01*
G01X28086Y2592D01*
G01X27982Y2571D01*
G01X27919Y2530D01*
G01X27898Y2467D01*
G01X27898Y2425D01*
G01X28982Y2300D02*
G01X28961Y2342D01*
G01X28898Y2405D01*
G01X29338Y2405D01*
G01X30003Y2321D02*
G01X29982Y2321D01*
G01X29940Y2342D01*
G01X29919Y2363D01*
G01X29898Y2405D01*
G01X29898Y2488D01*
G01X29919Y2530D01*
G01X29940Y2551D01*
G01X29982Y2571D01*
G01X30025Y2571D01*
G01X30065Y2551D01*
G01X30128Y2509D01*
G01X30338Y2300D01*
G01X30338Y2592D01*
G01X30898Y2342D02*
G01X30898Y2571D01*
G01X31065Y2446D01*
G01X31065Y2509D01*
G01X31086Y2551D01*
G01X31107Y2571D01*
G01X31171Y2592D01*
G01X31213Y2592D01*
G01X31275Y2571D01*
G01X31317Y2530D01*
G01X31338Y2467D01*
G01X31338Y2405D01*
G01X31317Y2342D01*
G01X31296Y2321D01*
G01X31255Y2300D01*
G01X31898Y2509D02*
G01X32192Y2300D01*
G01X32192Y2613D01*
G01X31898Y2509D02*
G01X32338Y2509D01*
G01X32898Y2551D02*
G01X32898Y2342D01*
G01X33086Y2321D01*
G01X33065Y2342D01*
G01X33044Y2405D01*
G01X33044Y2467D01*
G01X33065Y2530D01*
G01X33107Y2571D01*
G01X33171Y2592D01*
G01X33213Y2592D01*
G01X33275Y2571D01*
G01X33317Y2530D01*
G01X33338Y2467D01*
G01X33338Y2405D01*
G01X33317Y2342D01*
G01X33296Y2321D01*
G01X33255Y2300D01*
G01X33961Y2551D02*
G01X33919Y2530D01*
G01X33898Y2467D01*
G01X33898Y2425D01*
G01X33919Y2363D01*
G01X33982Y2321D01*
G01X34086Y2300D01*
G01X34192Y2300D01*
G01X34275Y2321D01*
G01X34317Y2363D01*
G01X34338Y2425D01*
G01X34338Y2446D01*
G01X34317Y2509D01*
G01X34275Y2551D01*
G01X34213Y2571D01*
G01X34192Y2571D01*
G01X34129Y2551D01*
G01X34086Y2509D01*
G01X34065Y2446D01*
G01X34065Y2425D01*
G01X34086Y2363D01*
G01X34129Y2321D01*
G01X34192Y2300D01*
G01X34998Y2592D02*
G01X35438Y2384D01*
G01X34998Y2300D02*
G01X34998Y2592D01*
G01X40961Y17692D02*
G01X40919Y17651D01*
G01X40898Y17588D01*
G01X40898Y17505D01*
G01X40919Y17442D01*
G01X40961Y17400D01*
G01X41004Y17400D01*
G01X41044Y17421D01*
G01X41065Y17442D01*
G01X41086Y17484D01*
G01X41129Y17609D01*
G01X41150Y17651D01*
G01X41171Y17671D01*
G01X41213Y17692D01*
G01X41275Y17692D01*
G01X41317Y17651D01*
G01X41338Y17588D01*
G01X41338Y17505D01*
G01X41317Y17442D01*
G01X41275Y17400D01*
G01X40898Y17830D02*
G01X41338Y17830D01*
G01X40898Y17830D02*
G01X40898Y17977D01*
G01X40919Y18040D01*
G01X40961Y18082D01*
G01X41004Y18103D01*
G01X41065Y18123D01*
G01X41171Y18123D01*
G01X41234Y18103D01*
G01X41275Y18082D01*
G01X41317Y18040D01*
G01X41338Y17977D01*
G01X41338Y17830D01*
G01X40898Y18428D02*
G01X41338Y18261D01*
G01X40898Y18428D02*
G01X41338Y18596D01*
G01X41192Y18323D02*
G01X41192Y18532D01*
G01X41961Y17692D02*
G01X41919Y17651D01*
G01X41898Y17588D01*
G01X41898Y17505D01*
G01X41919Y17442D01*
G01X41961Y17400D01*
G01X42004Y17400D01*
G01X42044Y17421D01*
G01X42065Y17442D01*
G01X42086Y17484D01*
G01X42129Y17609D01*
G01X42150Y17651D01*
G01X42171Y17671D01*
G01X42213Y17692D01*
G01X42275Y17692D01*
G01X42317Y17651D01*
G01X42338Y17588D01*
G01X42338Y17505D01*
G01X42317Y17442D01*
G01X42275Y17400D01*
G01X42004Y18144D02*
G01X41961Y18123D01*
G01X41919Y18082D01*
G01X41898Y18040D01*
G01X41898Y17955D01*
G01X41919Y17913D01*
G01X41961Y17873D01*
G01X42004Y17852D01*
G01X42065Y17830D01*
G01X42171Y17830D01*
G01X42234Y17852D01*
G01X42275Y17873D01*
G01X42317Y17913D01*
G01X42338Y17955D01*
G01X42338Y18040D01*
G01X42317Y18082D01*
G01X42275Y18123D01*
G01X42234Y18144D01*
G01X41898Y18282D02*
G01X42338Y18282D01*
G01X42338Y18282D02*
G01X42338Y18532D01*
G01X36898Y2405D02*
G01X36919Y2342D01*
G01X36961Y2321D01*
G01X37004Y2321D01*
G01X37044Y2342D01*
G01X37065Y2384D01*
G01X37086Y2467D01*
G01X37107Y2530D01*
G01X37150Y2571D01*
G01X37192Y2592D01*
G01X37255Y2592D01*
G01X37296Y2571D01*
G01X37317Y2551D01*
G01X37338Y2488D01*
G01X37338Y2405D01*
G01X37317Y2342D01*
G01X37296Y2321D01*
G01X37255Y2300D01*
G01X37192Y2300D01*
G01X37150Y2321D01*
G01X37107Y2363D01*
G01X37086Y2425D01*
G01X37065Y2509D01*
G01X37044Y2551D01*
G01X37004Y2571D01*
G01X36961Y2571D01*
G01X36919Y2551D01*
G01X36898Y2488D01*
G01X36898Y2405D01*
G01X38044Y2571D02*
G01X38107Y2551D01*
G01X38150Y2509D01*
G01X38171Y2446D01*
G01X38171Y2425D01*
G01X38150Y2363D01*
G01X38107Y2321D01*
G01X38044Y2300D01*
G01X38025Y2300D01*
G01X37961Y2321D01*
G01X37919Y2363D01*
G01X37898Y2425D01*
G01X37898Y2446D01*
G01X37919Y2509D01*
G01X37961Y2551D01*
G01X38044Y2571D01*
G01X38150Y2571D01*
G01X38255Y2551D01*
G01X38317Y2509D01*
G01X38338Y2446D01*
G01X38338Y2405D01*
G01X38317Y2342D01*
G01X38275Y2321D01*
G01X38982Y2300D02*
G01X38961Y2342D01*
G01X38898Y2405D01*
G01X39338Y2405D01*
G01X38898Y2667D02*
G01X38919Y2605D01*
G01X38982Y2563D01*
G01X39086Y2542D01*
G01X39150Y2542D01*
G01X39255Y2563D01*
G01X39317Y2605D01*
G01X39338Y2667D01*
G01X39338Y2709D01*
G01X39317Y2773D01*
G01X39255Y2813D01*
G01X39150Y2834D01*
G01X39086Y2834D01*
G01X38982Y2813D01*
G01X38919Y2773D01*
G01X38898Y2709D01*
G01X38898Y2667D01*
G01X39982Y2300D02*
G01X39961Y2342D01*
G01X39898Y2405D01*
G01X40338Y2405D01*
G01X39982Y2542D02*
G01X39961Y2584D01*
G01X39898Y2646D01*
G01X40338Y2646D01*
G01X40982Y2300D02*
G01X40961Y2342D01*
G01X40898Y2405D01*
G01X41338Y2405D01*
G01X41004Y2563D02*
G01X40982Y2563D01*
G01X40940Y2584D01*
G01X40919Y2605D01*
G01X40898Y2646D01*
G01X40898Y2730D01*
G01X40919Y2773D01*
G01X40940Y2792D01*
G01X40982Y2813D01*
G01X41025Y2813D01*
G01X41065Y2792D01*
G01X41129Y2751D01*
G01X41338Y2542D01*
G01X41338Y2834D01*
G01X41982Y2300D02*
G01X41961Y2342D01*
G01X41898Y2405D01*
G01X42338Y2405D01*
G01X41898Y2584D02*
G01X41898Y2813D01*
G01X42065Y2688D01*
G01X42065Y2751D01*
G01X42086Y2792D01*
G01X42107Y2813D01*
G01X42171Y2834D01*
G01X42213Y2834D01*
G01X42275Y2813D01*
G01X42317Y2773D01*
G01X42338Y2709D01*
G01X42338Y2646D01*
G01X42317Y2584D01*
G01X42296Y2563D01*
G01X42255Y2542D01*
G01X42982Y2300D02*
G01X42961Y2342D01*
G01X42898Y2405D01*
G01X43338Y2405D01*
G01X42898Y2751D02*
G01X43192Y2542D01*
G01X43192Y2855D01*
G01X42898Y2751D02*
G01X43338Y2751D01*
G01X43982Y2300D02*
G01X43961Y2342D01*
G01X43898Y2405D01*
G01X44338Y2405D01*
G01X43898Y2792D02*
G01X43898Y2584D01*
G01X44086Y2563D01*
G01X44065Y2584D01*
G01X44044Y2646D01*
G01X44044Y2709D01*
G01X44065Y2773D01*
G01X44107Y2813D01*
G01X44171Y2834D01*
G01X44213Y2834D01*
G01X44275Y2813D01*
G01X44317Y2773D01*
G01X44338Y2709D01*
G01X44338Y2646D01*
G01X44317Y2584D01*
G01X44296Y2563D01*
G01X44255Y2542D01*
G01X36898Y17546D02*
G01X37338Y17546D01*
G01X36898Y17400D02*
G01X36898Y17692D01*
G01X36898Y17830D02*
G01X37338Y18123D01*
G01X36898Y18123D02*
G01X37338Y17830D01*
G01X37004Y18282D02*
G01X36982Y18282D01*
G01X36940Y18303D01*
G01X36919Y18323D01*
G01X36898Y18365D01*
G01X36898Y18450D01*
G01X36919Y18490D01*
G01X36940Y18511D01*
G01X36982Y18532D01*
G01X37025Y18532D01*
G01X37065Y18511D01*
G01X37129Y18471D01*
G01X37338Y18261D01*
G01X37338Y18553D01*
G01X37898Y17400D02*
G01X38338Y17400D01*
G01X37898Y17400D02*
G01X37898Y17588D01*
G01X37919Y17651D01*
G01X37940Y17671D01*
G01X37982Y17692D01*
G01X38025Y17692D01*
G01X38065Y17671D01*
G01X38086Y17651D01*
G01X38107Y17588D01*
G01X38107Y17400D01*
G01X38107Y17546D02*
G01X38338Y17692D01*
G01X37898Y17830D02*
G01X38338Y18123D01*
G01X37898Y18123D02*
G01X38338Y17830D01*
G01X38004Y18282D02*
G01X37982Y18282D01*
G01X37940Y18303D01*
G01X37919Y18323D01*
G01X37898Y18365D01*
G01X37898Y18450D01*
G01X37919Y18490D01*
G01X37940Y18511D01*
G01X37982Y18532D01*
G01X38025Y18532D01*
G01X38065Y18511D01*
G01X38129Y18471D01*
G01X38338Y18261D01*
G01X38338Y18553D01*
G01X35898Y17400D02*
G01X36338Y17400D01*
G01X35898Y17400D02*
G01X35898Y17588D01*
G01X35919Y17651D01*
G01X35940Y17671D01*
G01X35982Y17692D01*
G01X36025Y17692D01*
G01X36065Y17671D01*
G01X36086Y17651D01*
G01X36107Y17588D01*
G01X36107Y17400D01*
G01X36107Y17546D02*
G01X36338Y17692D01*
G01X35898Y17830D02*
G01X36338Y18123D01*
G01X35898Y18123D02*
G01X36338Y17830D01*
G01X35898Y18303D02*
G01X35898Y18532D01*
G01X36065Y18407D01*
G01X36065Y18471D01*
G01X36086Y18511D01*
G01X36107Y18532D01*
G01X36171Y18553D01*
G01X36213Y18553D01*
G01X36275Y18532D01*
G01X36317Y18490D01*
G01X36338Y18428D01*
G01X36338Y18365D01*
G01X36317Y18303D01*
G01X36296Y18282D01*
G01X36255Y18261D01*
G01X34898Y17546D02*
G01X35338Y17546D01*
G01X34898Y17400D02*
G01X34898Y17692D01*
G01X34898Y17830D02*
G01X35338Y18123D01*
G01X34898Y18123D02*
G01X35338Y17830D01*
G01X34898Y18303D02*
G01X34898Y18532D01*
G01X35065Y18407D01*
G01X35065Y18471D01*
G01X35086Y18511D01*
G01X35107Y18532D01*
G01X35171Y18553D01*
G01X35213Y18553D01*
G01X35275Y18532D01*
G01X35317Y18490D01*
G01X35338Y18428D01*
G01X35338Y18365D01*
G01X35317Y18303D01*
G01X35296Y18282D01*
G01X35255Y18261D01*
G01X39898Y17400D02*
G01X40338Y17400D01*
G01X39898Y17400D02*
G01X39898Y17588D01*
G01X39919Y17651D01*
G01X39940Y17671D01*
G01X39982Y17692D01*
G01X40025Y17692D01*
G01X40065Y17671D01*
G01X40086Y17651D01*
G01X40107Y17588D01*
G01X40107Y17400D01*
G01X40107Y17546D02*
G01X40338Y17692D01*
G01X39898Y17830D02*
G01X40338Y18123D01*
G01X39898Y18123D02*
G01X40338Y17830D01*
G01X39982Y18261D02*
G01X39961Y18303D01*
G01X39898Y18365D01*
G01X40338Y18365D01*
G01X38898Y17546D02*
G01X39338Y17546D01*
G01X38898Y17400D02*
G01X38898Y17692D01*
G01X38898Y17830D02*
G01X39338Y18123D01*
G01X38898Y18123D02*
G01X39338Y17830D01*
G01X38982Y18261D02*
G01X38961Y18303D01*
G01X38898Y18365D01*
G01X39338Y18365D01*
G01X34982Y19100D02*
G01X34961Y19142D01*
G01X34898Y19205D01*
G01X35338Y19205D01*
G01X34898Y19552D02*
G01X35192Y19342D01*
G01X35192Y19655D01*
G01X34898Y19552D02*
G01X35338Y19552D01*
G01X35982Y19100D02*
G01X35961Y19142D01*
G01X35898Y19205D01*
G01X36338Y19205D01*
G01X35898Y19592D02*
G01X35898Y19384D01*
G01X36086Y19363D01*
G01X36065Y19384D01*
G01X36044Y19446D01*
G01X36044Y19509D01*
G01X36065Y19573D01*
G01X36107Y19613D01*
G01X36171Y19634D01*
G01X36213Y19634D01*
G01X36275Y19613D01*
G01X36317Y19573D01*
G01X36338Y19509D01*
G01X36338Y19446D01*
G01X36317Y19384D01*
G01X36296Y19363D01*
G01X36255Y19342D01*
G01X36982Y19100D02*
G01X36961Y19142D01*
G01X36898Y19205D01*
G01X37338Y19205D01*
G01X36961Y19592D02*
G01X36919Y19573D01*
G01X36898Y19509D01*
G01X36898Y19467D01*
G01X36919Y19405D01*
G01X36982Y19363D01*
G01X37086Y19342D01*
G01X37192Y19342D01*
G01X37275Y19363D01*
G01X37317Y19405D01*
G01X37338Y19467D01*
G01X37338Y19488D01*
G01X37317Y19552D01*
G01X37275Y19592D01*
G01X37213Y19613D01*
G01X37192Y19613D01*
G01X37129Y19592D01*
G01X37086Y19552D01*
G01X37065Y19488D01*
G01X37065Y19467D01*
G01X37086Y19405D01*
G01X37129Y19363D01*
G01X37192Y19342D01*
G01X38082Y19100D02*
G01X38061Y19142D01*
G01X37998Y19205D01*
G01X38438Y19205D01*
G01X37998Y19634D02*
G01X38438Y19426D01*
G01X37998Y19342D02*
G01X37998Y19634D01*
G01X38982Y19100D02*
G01X38961Y19142D01*
G01X38898Y19205D01*
G01X39338Y19205D01*
G01X38898Y19446D02*
G01X38919Y19384D01*
G01X38961Y19363D01*
G01X39004Y19363D01*
G01X39044Y19384D01*
G01X39065Y19426D01*
G01X39086Y19509D01*
G01X39107Y19573D01*
G01X39150Y19613D01*
G01X39192Y19634D01*
G01X39255Y19634D01*
G01X39296Y19613D01*
G01X39317Y19592D01*
G01X39338Y19530D01*
G01X39338Y19446D01*
G01X39317Y19384D01*
G01X39296Y19363D01*
G01X39255Y19342D01*
G01X39192Y19342D01*
G01X39150Y19363D01*
G01X39107Y19405D01*
G01X39086Y19467D01*
G01X39065Y19552D01*
G01X39044Y19592D01*
G01X39004Y19613D01*
G01X38961Y19613D01*
G01X38919Y19592D01*
G01X38898Y19530D01*
G01X38898Y19446D01*
G01X39982Y19100D02*
G01X39961Y19142D01*
G01X39898Y19205D01*
G01X40338Y19205D01*
G01X40044Y19613D02*
G01X40107Y19592D01*
G01X40150Y19552D01*
G01X40171Y19488D01*
G01X40171Y19467D01*
G01X40150Y19405D01*
G01X40107Y19363D01*
G01X40044Y19342D01*
G01X40025Y19342D01*
G01X39961Y19363D01*
G01X39919Y19405D01*
G01X39898Y19467D01*
G01X39898Y19488D01*
G01X39919Y19552D01*
G01X39961Y19592D01*
G01X40044Y19613D01*
G01X40150Y19613D01*
G01X40255Y19592D01*
G01X40317Y19552D01*
G01X40338Y19488D01*
G01X40338Y19446D01*
G01X40317Y19384D01*
G01X40275Y19363D01*
G01X41004Y18921D02*
G01X40982Y18921D01*
G01X40940Y18942D01*
G01X40919Y18963D01*
G01X40898Y19005D01*
G01X40898Y19088D01*
G01X40919Y19130D01*
G01X40940Y19151D01*
G01X40982Y19171D01*
G01X41025Y19171D01*
G01X41065Y19151D01*
G01X41129Y19109D01*
G01X41338Y18900D01*
G01X41338Y19192D01*
G01X40898Y19455D02*
G01X40919Y19392D01*
G01X40982Y19352D01*
G01X41086Y19330D01*
G01X41150Y19330D01*
G01X41255Y19352D01*
G01X41317Y19392D01*
G01X41338Y19455D01*
G01X41338Y19498D01*
G01X41317Y19561D01*
G01X41255Y19603D01*
G01X41150Y19623D01*
G01X41086Y19623D01*
G01X40982Y19603D01*
G01X40919Y19561D01*
G01X40898Y19498D01*
G01X40898Y19455D01*
G01X42004Y19021D02*
G01X41982Y19021D01*
G01X41940Y19042D01*
G01X41919Y19063D01*
G01X41898Y19105D01*
G01X41898Y19188D01*
G01X41919Y19230D01*
G01X41940Y19251D01*
G01X41982Y19271D01*
G01X42025Y19271D01*
G01X42065Y19251D01*
G01X42129Y19209D01*
G01X42338Y19000D01*
G01X42338Y19292D01*
G01X41982Y19430D02*
G01X41961Y19473D01*
G01X41898Y19534D01*
G01X42338Y19534D01*
G01X45553Y21804D02*
G01X45399Y21804D01*
G01X45383Y21665D01*
G01X45399Y21681D01*
G01X45445Y21696D01*
G01X45492Y21696D01*
G01X45538Y21681D01*
G01X45569Y21650D01*
G01X45584Y21604D01*
G01X45584Y21573D01*
G01X45569Y21526D01*
G01X45538Y21495D01*
G01X45492Y21480D01*
G01X45445Y21480D01*
G01X45399Y21495D01*
G01X45383Y21511D01*
G01X45368Y21542D01*
G01X45686Y21804D02*
G01X45810Y21480D01*
G01X45934Y21804D02*
G01X45810Y21480D01*
G01X42849Y9899D02*
G01X43383Y9899D01*
G01X42849Y9899D02*
G01X42849Y10077D01*
G01X42874Y10154D01*
G01X42925Y10204D01*
G01X42976Y10230D01*
G01X43052Y10255D01*
G01X43179Y10255D01*
G01X43256Y10230D01*
G01X43307Y10204D01*
G01X43358Y10154D01*
G01X43383Y10077D01*
G01X43383Y9899D01*
G01X42849Y10423D02*
G01X43383Y10423D01*
G01X42976Y10973D02*
G01X42925Y10948D01*
G01X42874Y10897D01*
G01X42849Y10846D01*
G01X42849Y10744D01*
G01X42874Y10693D01*
G01X42925Y10642D01*
G01X42976Y10617D01*
G01X43052Y10591D01*
G01X43179Y10591D01*
G01X43256Y10617D01*
G01X43307Y10642D01*
G01X43358Y10693D01*
G01X43383Y10744D01*
G01X43383Y10846D01*
G01X43358Y10897D01*
G01X43307Y10948D01*
G01X43256Y10973D01*
G01X43179Y10973D01*
G01X43179Y10846D02*
G01X43179Y10973D01*
G01X42849Y11141D02*
G01X43383Y11141D01*
G01X42849Y11487D02*
G01X43383Y11487D01*
G01X42849Y11309D02*
G01X42849Y11666D01*
G01X42849Y12037D02*
G01X43383Y11834D01*
G01X42849Y12037D02*
G01X43383Y12241D01*
G01X43205Y11910D02*
G01X43205Y12164D01*
G01X42849Y12409D02*
G01X43383Y12409D01*
G01X43383Y12409D02*
G01X43383Y12714D01*
G01X30053Y3605D02*
G01X29850Y3071D01*
G01X30053Y3605D02*
G01X30256Y3071D01*
G01X29926Y3248D02*
G01X30181Y3248D01*
G01X30425Y3605D02*
G01X30425Y3071D01*
G01X30425Y3605D02*
G01X30781Y3071D01*
G01X30781Y3605D02*
G01X30781Y3071D01*
G01X31152Y3605D02*
G01X30950Y3071D01*
G01X31152Y3605D02*
G01X31356Y3071D01*
G01X31026Y3248D02*
G01X31281Y3248D01*
G01X31525Y3605D02*
G01X31525Y3071D01*
G01X31525Y3071D02*
G01X31830Y3071D01*
G01X32151Y3605D02*
G01X32100Y3580D01*
G01X32048Y3528D01*
G01X32023Y3478D01*
G01X31997Y3401D01*
G01X31997Y3275D01*
G01X32023Y3198D01*
G01X32048Y3146D01*
G01X32100Y3096D01*
G01X32151Y3071D01*
G01X32252Y3071D01*
G01X32303Y3096D01*
G01X32355Y3146D01*
G01X32380Y3198D01*
G01X32406Y3275D01*
G01X32406Y3401D01*
G01X32380Y3478D01*
G01X32355Y3528D01*
G01X32303Y3580D01*
G01X32252Y3605D01*
G01X32151Y3605D01*
G01X32955Y3478D02*
G01X32930Y3528D01*
G01X32879Y3580D01*
G01X32827Y3605D01*
G01X32726Y3605D01*
G01X32675Y3580D01*
G01X32625Y3528D01*
G01X32598Y3478D01*
G01X32573Y3401D01*
G01X32573Y3275D01*
G01X32598Y3198D01*
G01X32625Y3146D01*
G01X32675Y3096D01*
G01X32726Y3071D01*
G01X32827Y3071D01*
G01X32879Y3096D01*
G01X32930Y3146D01*
G01X32955Y3198D01*
G01X32955Y3275D01*
G01X32827Y3275D02*
G01X32955Y3275D01*
G01X34298Y3605D02*
G01X34298Y3071D01*
G01X34467Y3605D02*
G01X34467Y3071D01*
G01X34467Y3605D02*
G01X34823Y3071D01*
G01X34823Y3605D02*
G01X34823Y3071D01*
G01X23001Y2651D02*
G01X22792Y2651D01*
G01X22771Y2463D01*
G01X22792Y2484D01*
G01X22855Y2505D01*
G01X22917Y2505D01*
G01X22980Y2484D01*
G01X23022Y2442D01*
G01X23043Y2378D01*
G01X23043Y2336D01*
G01X23022Y2275D01*
G01X22980Y2232D01*
G01X22917Y2211D01*
G01X22855Y2211D01*
G01X22792Y2232D01*
G01X22771Y2253D01*
G01X22750Y2294D01*
G01X23181Y2651D02*
G01X23347Y2211D01*
G01X23514Y2651D02*
G01X23347Y2211D01*
G01X25650Y2651D02*
G01X25817Y2211D01*
G01X25985Y2651D02*
G01X25817Y2211D01*
G01X26122Y2651D02*
G01X26122Y2211D01*
G01X26260Y2651D02*
G01X26260Y2211D01*
G01X26260Y2651D02*
G01X26552Y2211D01*
G01X26552Y2651D02*
G01X26552Y2211D01*
G01X24364Y2546D02*
G01X24343Y2588D01*
G01X24301Y2630D01*
G01X24259Y2651D01*
G01X24175Y2651D01*
G01X24134Y2630D01*
G01X24092Y2588D01*
G01X24071Y2546D01*
G01X24050Y2484D01*
G01X24050Y2378D01*
G01X24071Y2315D01*
G01X24092Y2275D01*
G01X24134Y2232D01*
G01X24175Y2211D01*
G01X24259Y2211D01*
G01X24301Y2232D01*
G01X24343Y2275D01*
G01X24364Y2315D01*
G01X24364Y2378D01*
G01X24259Y2378D02*
G01X24364Y2378D01*
G01X24502Y2651D02*
G01X24502Y2211D01*
G01X24502Y2651D02*
G01X24793Y2211D01*
G01X24793Y2651D02*
G01X24793Y2211D01*
G01X24931Y2651D02*
G01X24931Y2211D01*
G01X24931Y2651D02*
G01X25078Y2651D01*
G01X25140Y2630D01*
G01X25182Y2588D01*
G01X25203Y2546D01*
G01X25225Y2484D01*
G01X25225Y2378D01*
G01X25203Y2315D01*
G01X25182Y2275D01*
G01X25140Y2232D01*
G01X25078Y2211D01*
G01X24931Y2211D01*
G01X24349Y18904D02*
G01X24349Y18370D01*
G01X24349Y18904D02*
G01X24578Y18904D01*
G01X24654Y18879D01*
G01X24680Y18854D01*
G01X24705Y18803D01*
G01X24705Y18726D01*
G01X24680Y18675D01*
G01X24654Y18650D01*
G01X24578Y18624D01*
G01X24349Y18624D01*
G01X24873Y18904D02*
G01X25001Y18370D01*
G01X25128Y18904D02*
G01X25001Y18370D01*
G01X25128Y18904D02*
G01X25255Y18370D01*
G01X25382Y18904D02*
G01X25255Y18370D01*
G01X25550Y18904D02*
G01X25550Y18370D01*
G01X25550Y18904D02*
G01X25754Y18370D01*
G01X25958Y18904D02*
G01X25754Y18370D01*
G01X25958Y18904D02*
G01X25958Y18370D01*
G01X45367Y2275D02*
G01X45346Y2317D01*
G01X45304Y2359D01*
G01X45262Y2380D01*
G01X45178Y2380D01*
G01X45137Y2359D01*
G01X45095Y2317D01*
G01X45074Y2275D01*
G01X45053Y2213D01*
G01X45053Y2108D01*
G01X45074Y2045D01*
G01X45095Y2004D01*
G01X45137Y1962D01*
G01X45178Y1941D01*
G01X45262Y1941D01*
G01X45304Y1962D01*
G01X45346Y2004D01*
G01X45367Y2045D01*
G01X45367Y2108D01*
G01X45262Y2108D02*
G01X45367Y2108D01*
G01X45505Y2380D02*
G01X45505Y1941D01*
G01X45505Y2380D02*
G01X45797Y1941D01*
G01X45797Y2380D02*
G01X45797Y1941D01*
G01X45935Y2380D02*
G01X45935Y1941D01*
G01X45935Y2380D02*
G01X46082Y2380D01*
G01X46144Y2359D01*
G01X46186Y2317D01*
G01X46207Y2275D01*
G01X46228Y2213D01*
G01X46228Y2108D01*
G01X46207Y2045D01*
G01X46186Y2004D01*
G01X46144Y1962D01*
G01X46082Y1941D01*
G01X45935Y1941D01*
G01X43671Y19546D02*
G01X43671Y19567D01*
G01X43692Y19609D01*
G01X43713Y19630D01*
G01X43755Y19651D01*
G01X43838Y19651D01*
G01X43880Y19630D01*
G01X43901Y19609D01*
G01X43922Y19567D01*
G01X43922Y19525D01*
G01X43901Y19484D01*
G01X43859Y19421D01*
G01X43650Y19211D01*
G01X43943Y19211D01*
G01X44102Y19546D02*
G01X44102Y19567D01*
G01X44122Y19609D01*
G01X44143Y19630D01*
G01X44185Y19651D01*
G01X44268Y19651D01*
G01X44310Y19630D01*
G01X44331Y19609D01*
G01X44352Y19567D01*
G01X44352Y19525D01*
G01X44331Y19484D01*
G01X44289Y19421D01*
G01X44081Y19211D01*
G01X44372Y19211D01*
G01X43671Y18546D02*
G01X43671Y18567D01*
G01X43692Y18609D01*
G01X43713Y18630D01*
G01X43755Y18651D01*
G01X43838Y18651D01*
G01X43880Y18630D01*
G01X43901Y18609D01*
G01X43922Y18567D01*
G01X43922Y18525D01*
G01X43901Y18484D01*
G01X43859Y18421D01*
G01X43650Y18211D01*
G01X43943Y18211D01*
G01X44289Y18651D02*
G01X44081Y18357D01*
G01X44393Y18357D01*
G01X44289Y18651D02*
G01X44289Y18211D01*
G01X43671Y17546D02*
G01X43671Y17567D01*
G01X43692Y17609D01*
G01X43713Y17630D01*
G01X43755Y17651D01*
G01X43838Y17651D01*
G01X43880Y17630D01*
G01X43901Y17609D01*
G01X43922Y17567D01*
G01X43922Y17525D01*
G01X43901Y17484D01*
G01X43859Y17421D01*
G01X43650Y17211D01*
G01X43943Y17211D01*
G01X44331Y17588D02*
G01X44310Y17630D01*
G01X44247Y17651D01*
G01X44206Y17651D01*
G01X44143Y17630D01*
G01X44102Y17567D01*
G01X44081Y17463D01*
G01X44081Y17357D01*
G01X44102Y17275D01*
G01X44143Y17232D01*
G01X44206Y17211D01*
G01X44227Y17211D01*
G01X44289Y17232D01*
G01X44331Y17275D01*
G01X44352Y17336D01*
G01X44352Y17357D01*
G01X44331Y17421D01*
G01X44289Y17463D01*
G01X44227Y17484D01*
G01X44206Y17484D01*
G01X44143Y17463D01*
G01X44102Y17421D01*
G01X44081Y17357D01*
G01X43671Y16546D02*
G01X43671Y16567D01*
G01X43692Y16609D01*
G01X43713Y16630D01*
G01X43755Y16651D01*
G01X43838Y16651D01*
G01X43880Y16630D01*
G01X43901Y16609D01*
G01X43922Y16567D01*
G01X43922Y16525D01*
G01X43901Y16484D01*
G01X43859Y16421D01*
G01X43650Y16211D01*
G01X43943Y16211D01*
G01X44185Y16651D02*
G01X44122Y16630D01*
G01X44102Y16588D01*
G01X44102Y16546D01*
G01X44122Y16505D01*
G01X44164Y16484D01*
G01X44247Y16463D01*
G01X44310Y16442D01*
G01X44352Y16400D01*
G01X44372Y16357D01*
G01X44372Y16294D01*
G01X44352Y16253D01*
G01X44331Y16232D01*
G01X44268Y16211D01*
G01X44185Y16211D01*
G01X44122Y16232D01*
G01X44102Y16253D01*
G01X44081Y16294D01*
G01X44081Y16357D01*
G01X44102Y16400D01*
G01X44143Y16442D01*
G01X44206Y16463D01*
G01X44289Y16484D01*
G01X44331Y16505D01*
G01X44352Y16546D01*
G01X44352Y16588D01*
G01X44331Y16630D01*
G01X44268Y16651D01*
G01X44185Y16651D01*
G01X43692Y15651D02*
G01X43922Y15651D01*
G01X43796Y15484D01*
G01X43859Y15484D01*
G01X43901Y15463D01*
G01X43922Y15442D01*
G01X43943Y15378D01*
G01X43943Y15336D01*
G01X43922Y15275D01*
G01X43880Y15232D01*
G01X43817Y15211D01*
G01X43755Y15211D01*
G01X43692Y15232D01*
G01X43671Y15253D01*
G01X43650Y15294D01*
G01X44206Y15651D02*
G01X44143Y15630D01*
G01X44102Y15567D01*
G01X44081Y15463D01*
G01X44081Y15400D01*
G01X44102Y15294D01*
G01X44143Y15232D01*
G01X44206Y15211D01*
G01X44247Y15211D01*
G01X44310Y15232D01*
G01X44352Y15294D01*
G01X44372Y15400D01*
G01X44372Y15463D01*
G01X44352Y15567D01*
G01X44310Y15630D01*
G01X44247Y15651D01*
G01X44206Y15651D01*
G01X46942Y15651D02*
G01X47172Y15651D01*
G01X47046Y15484D01*
G01X47109Y15484D01*
G01X47151Y15463D01*
G01X47172Y15442D01*
G01X47193Y15378D01*
G01X47193Y15336D01*
G01X47172Y15275D01*
G01X47130Y15232D01*
G01X47067Y15211D01*
G01X47005Y15211D01*
G01X46942Y15232D01*
G01X46921Y15253D01*
G01X46900Y15294D01*
G01X47331Y15567D02*
G01X47372Y15588D01*
G01X47435Y15651D01*
G01X47435Y15211D01*
G01X43692Y14651D02*
G01X43922Y14651D01*
G01X43796Y14484D01*
G01X43859Y14484D01*
G01X43901Y14463D01*
G01X43922Y14442D01*
G01X43943Y14378D01*
G01X43943Y14336D01*
G01X43922Y14275D01*
G01X43880Y14232D01*
G01X43817Y14211D01*
G01X43755Y14211D01*
G01X43692Y14232D01*
G01X43671Y14253D01*
G01X43650Y14294D01*
G01X44102Y14546D02*
G01X44102Y14567D01*
G01X44122Y14609D01*
G01X44143Y14630D01*
G01X44185Y14651D01*
G01X44268Y14651D01*
G01X44310Y14630D01*
G01X44331Y14609D01*
G01X44352Y14567D01*
G01X44352Y14525D01*
G01X44331Y14484D01*
G01X44289Y14421D01*
G01X44081Y14211D01*
G01X44372Y14211D01*
G01X46942Y14651D02*
G01X47172Y14651D01*
G01X47046Y14484D01*
G01X47109Y14484D01*
G01X47151Y14463D01*
G01X47172Y14442D01*
G01X47193Y14378D01*
G01X47193Y14336D01*
G01X47172Y14275D01*
G01X47130Y14232D01*
G01X47067Y14211D01*
G01X47005Y14211D01*
G01X46942Y14232D01*
G01X46921Y14253D01*
G01X46900Y14294D01*
G01X47372Y14651D02*
G01X47602Y14651D01*
G01X47477Y14484D01*
G01X47539Y14484D01*
G01X47581Y14463D01*
G01X47602Y14442D01*
G01X47622Y14378D01*
G01X47622Y14336D01*
G01X47602Y14275D01*
G01X47560Y14232D01*
G01X47497Y14211D01*
G01X47435Y14211D01*
G01X47372Y14232D01*
G01X47352Y14253D01*
G01X47331Y14294D01*
G01X43692Y13651D02*
G01X43922Y13651D01*
G01X43796Y13484D01*
G01X43859Y13484D01*
G01X43901Y13463D01*
G01X43922Y13442D01*
G01X43943Y13378D01*
G01X43943Y13336D01*
G01X43922Y13275D01*
G01X43880Y13232D01*
G01X43817Y13211D01*
G01X43755Y13211D01*
G01X43692Y13232D01*
G01X43671Y13253D01*
G01X43650Y13294D01*
G01X44289Y13651D02*
G01X44081Y13357D01*
G01X44393Y13357D01*
G01X44289Y13651D02*
G01X44289Y13211D01*
G01X46942Y13651D02*
G01X47172Y13651D01*
G01X47046Y13484D01*
G01X47109Y13484D01*
G01X47151Y13463D01*
G01X47172Y13442D01*
G01X47193Y13378D01*
G01X47193Y13336D01*
G01X47172Y13275D01*
G01X47130Y13232D01*
G01X47067Y13211D01*
G01X47005Y13211D01*
G01X46942Y13232D01*
G01X46921Y13253D01*
G01X46900Y13294D01*
G01X47581Y13651D02*
G01X47372Y13651D01*
G01X47352Y13463D01*
G01X47372Y13484D01*
G01X47435Y13505D01*
G01X47497Y13505D01*
G01X47560Y13484D01*
G01X47602Y13442D01*
G01X47622Y13378D01*
G01X47622Y13336D01*
G01X47602Y13275D01*
G01X47560Y13232D01*
G01X47497Y13211D01*
G01X47435Y13211D01*
G01X47372Y13232D01*
G01X47352Y13253D01*
G01X47331Y13294D01*
G01X43692Y12651D02*
G01X43922Y12651D01*
G01X43796Y12484D01*
G01X43859Y12484D01*
G01X43901Y12463D01*
G01X43922Y12442D01*
G01X43943Y12378D01*
G01X43943Y12336D01*
G01X43922Y12275D01*
G01X43880Y12232D01*
G01X43817Y12211D01*
G01X43755Y12211D01*
G01X43692Y12232D01*
G01X43671Y12253D01*
G01X43650Y12294D01*
G01X44331Y12588D02*
G01X44310Y12630D01*
G01X44247Y12651D01*
G01X44206Y12651D01*
G01X44143Y12630D01*
G01X44102Y12567D01*
G01X44081Y12463D01*
G01X44081Y12357D01*
G01X44102Y12275D01*
G01X44143Y12232D01*
G01X44206Y12211D01*
G01X44227Y12211D01*
G01X44289Y12232D01*
G01X44331Y12275D01*
G01X44352Y12336D01*
G01X44352Y12357D01*
G01X44331Y12421D01*
G01X44289Y12463D01*
G01X44227Y12484D01*
G01X44206Y12484D01*
G01X44143Y12463D01*
G01X44102Y12421D01*
G01X44081Y12357D01*
G01X46942Y12651D02*
G01X47172Y12651D01*
G01X47046Y12484D01*
G01X47109Y12484D01*
G01X47151Y12463D01*
G01X47172Y12442D01*
G01X47193Y12378D01*
G01X47193Y12336D01*
G01X47172Y12275D01*
G01X47130Y12232D01*
G01X47067Y12211D01*
G01X47005Y12211D01*
G01X46942Y12232D01*
G01X46921Y12253D01*
G01X46900Y12294D01*
G01X47622Y12651D02*
G01X47414Y12211D01*
G01X47331Y12651D02*
G01X47622Y12651D01*
G01X43692Y11651D02*
G01X43922Y11651D01*
G01X43796Y11484D01*
G01X43859Y11484D01*
G01X43901Y11463D01*
G01X43922Y11442D01*
G01X43943Y11378D01*
G01X43943Y11336D01*
G01X43922Y11275D01*
G01X43880Y11232D01*
G01X43817Y11211D01*
G01X43755Y11211D01*
G01X43692Y11232D01*
G01X43671Y11253D01*
G01X43650Y11294D01*
G01X44185Y11651D02*
G01X44122Y11630D01*
G01X44102Y11588D01*
G01X44102Y11546D01*
G01X44122Y11505D01*
G01X44164Y11484D01*
G01X44247Y11463D01*
G01X44310Y11442D01*
G01X44352Y11400D01*
G01X44372Y11357D01*
G01X44372Y11294D01*
G01X44352Y11253D01*
G01X44331Y11232D01*
G01X44268Y11211D01*
G01X44185Y11211D01*
G01X44122Y11232D01*
G01X44102Y11253D01*
G01X44081Y11294D01*
G01X44081Y11357D01*
G01X44102Y11400D01*
G01X44143Y11442D01*
G01X44206Y11463D01*
G01X44289Y11484D01*
G01X44331Y11505D01*
G01X44352Y11546D01*
G01X44352Y11588D01*
G01X44331Y11630D01*
G01X44268Y11651D01*
G01X44185Y11651D01*
G01X46942Y11651D02*
G01X47172Y11651D01*
G01X47046Y11484D01*
G01X47109Y11484D01*
G01X47151Y11463D01*
G01X47172Y11442D01*
G01X47193Y11378D01*
G01X47193Y11336D01*
G01X47172Y11275D01*
G01X47130Y11232D01*
G01X47067Y11211D01*
G01X47005Y11211D01*
G01X46942Y11232D01*
G01X46921Y11253D01*
G01X46900Y11294D01*
G01X47602Y11505D02*
G01X47581Y11442D01*
G01X47539Y11400D01*
G01X47477Y11378D01*
G01X47456Y11378D01*
G01X47393Y11400D01*
G01X47352Y11442D01*
G01X47331Y11505D01*
G01X47331Y11525D01*
G01X47352Y11588D01*
G01X47393Y11630D01*
G01X47456Y11651D01*
G01X47477Y11651D01*
G01X47539Y11630D01*
G01X47581Y11588D01*
G01X47602Y11505D01*
G01X47602Y11400D01*
G01X47581Y11294D01*
G01X47539Y11232D01*
G01X47477Y11211D01*
G01X47435Y11211D01*
G01X47372Y11232D01*
G01X47352Y11275D01*
G01X47109Y10651D02*
G01X46900Y10357D01*
G01X47214Y10357D01*
G01X47109Y10651D02*
G01X47109Y10211D01*
G01X47352Y10567D02*
G01X47393Y10588D01*
G01X47456Y10651D01*
G01X47456Y10211D01*
G01X43859Y10651D02*
G01X43650Y10357D01*
G01X43964Y10357D01*
G01X43859Y10651D02*
G01X43859Y10211D01*
G01X44227Y10651D02*
G01X44164Y10630D01*
G01X44122Y10567D01*
G01X44102Y10463D01*
G01X44102Y10400D01*
G01X44122Y10294D01*
G01X44164Y10232D01*
G01X44227Y10211D01*
G01X44268Y10211D01*
G01X44331Y10232D01*
G01X44372Y10294D01*
G01X44393Y10400D01*
G01X44393Y10463D01*
G01X44372Y10567D01*
G01X44331Y10630D01*
G01X44268Y10651D01*
G01X44227Y10651D01*
G01X47109Y9651D02*
G01X46900Y9357D01*
G01X47214Y9357D01*
G01X47109Y9651D02*
G01X47109Y9211D01*
G01X47393Y9651D02*
G01X47622Y9651D01*
G01X47497Y9484D01*
G01X47560Y9484D01*
G01X47602Y9463D01*
G01X47622Y9442D01*
G01X47643Y9378D01*
G01X47643Y9336D01*
G01X47622Y9275D01*
G01X47581Y9232D01*
G01X47518Y9211D01*
G01X47456Y9211D01*
G01X47393Y9232D01*
G01X47372Y9253D01*
G01X47352Y9294D01*
G01X43859Y9651D02*
G01X43650Y9357D01*
G01X43964Y9357D01*
G01X43859Y9651D02*
G01X43859Y9211D01*
G01X44122Y9546D02*
G01X44122Y9567D01*
G01X44143Y9609D01*
G01X44164Y9630D01*
G01X44206Y9651D01*
G01X44289Y9651D01*
G01X44331Y9630D01*
G01X44352Y9609D01*
G01X44372Y9567D01*
G01X44372Y9525D01*
G01X44352Y9484D01*
G01X44310Y9421D01*
G01X44102Y9211D01*
G01X44393Y9211D01*
G01X47109Y8651D02*
G01X46900Y8357D01*
G01X47214Y8357D01*
G01X47109Y8651D02*
G01X47109Y8211D01*
G01X47602Y8651D02*
G01X47393Y8651D01*
G01X47372Y8463D01*
G01X47393Y8484D01*
G01X47456Y8505D01*
G01X47518Y8505D01*
G01X47581Y8484D01*
G01X47622Y8442D01*
G01X47643Y8378D01*
G01X47643Y8336D01*
G01X47622Y8275D01*
G01X47581Y8232D01*
G01X47518Y8211D01*
G01X47456Y8211D01*
G01X47393Y8232D01*
G01X47372Y8253D01*
G01X47352Y8294D01*
G01X47109Y7651D02*
G01X46900Y7357D01*
G01X47214Y7357D01*
G01X47109Y7651D02*
G01X47109Y7211D01*
G01X47643Y7651D02*
G01X47435Y7211D01*
G01X47352Y7651D02*
G01X47643Y7651D01*
G01X47109Y6651D02*
G01X46900Y6357D01*
G01X47214Y6357D01*
G01X47109Y6651D02*
G01X47109Y6211D01*
G01X47622Y6505D02*
G01X47602Y6442D01*
G01X47560Y6400D01*
G01X47497Y6378D01*
G01X47477Y6378D01*
G01X47414Y6400D01*
G01X47372Y6442D01*
G01X47352Y6505D01*
G01X47352Y6525D01*
G01X47372Y6588D01*
G01X47414Y6630D01*
G01X47477Y6651D01*
G01X47497Y6651D01*
G01X47560Y6630D01*
G01X47602Y6588D01*
G01X47622Y6505D01*
G01X47622Y6400D01*
G01X47602Y6294D01*
G01X47560Y6232D01*
G01X47497Y6211D01*
G01X47456Y6211D01*
G01X47393Y6232D01*
G01X47372Y6275D01*
G01X47151Y5651D02*
G01X46942Y5651D01*
G01X46921Y5463D01*
G01X46942Y5484D01*
G01X47005Y5505D01*
G01X47067Y5505D01*
G01X47130Y5484D01*
G01X47172Y5442D01*
G01X47193Y5378D01*
G01X47193Y5336D01*
G01X47172Y5275D01*
G01X47130Y5232D01*
G01X47067Y5211D01*
G01X47005Y5211D01*
G01X46942Y5232D01*
G01X46921Y5253D01*
G01X46900Y5294D01*
G01X47331Y5567D02*
G01X47372Y5588D01*
G01X47435Y5651D01*
G01X47435Y5211D01*
G01X43859Y8651D02*
G01X43650Y8357D01*
G01X43964Y8357D01*
G01X43859Y8651D02*
G01X43859Y8211D01*
G01X44310Y8651D02*
G01X44102Y8357D01*
G01X44414Y8357D01*
G01X44310Y8651D02*
G01X44310Y8211D01*
G01X43859Y7651D02*
G01X43650Y7357D01*
G01X43964Y7357D01*
G01X43859Y7651D02*
G01X43859Y7211D01*
G01X44352Y7588D02*
G01X44331Y7630D01*
G01X44268Y7651D01*
G01X44227Y7651D01*
G01X44164Y7630D01*
G01X44122Y7567D01*
G01X44102Y7463D01*
G01X44102Y7357D01*
G01X44122Y7275D01*
G01X44164Y7232D01*
G01X44227Y7211D01*
G01X44247Y7211D01*
G01X44310Y7232D01*
G01X44352Y7275D01*
G01X44372Y7336D01*
G01X44372Y7357D01*
G01X44352Y7421D01*
G01X44310Y7463D01*
G01X44247Y7484D01*
G01X44227Y7484D01*
G01X44164Y7463D01*
G01X44122Y7421D01*
G01X44102Y7357D01*
G01X43901Y5651D02*
G01X43692Y5651D01*
G01X43671Y5463D01*
G01X43692Y5484D01*
G01X43755Y5505D01*
G01X43817Y5505D01*
G01X43880Y5484D01*
G01X43922Y5442D01*
G01X43943Y5378D01*
G01X43943Y5336D01*
G01X43922Y5275D01*
G01X43880Y5232D01*
G01X43817Y5211D01*
G01X43755Y5211D01*
G01X43692Y5232D01*
G01X43671Y5253D01*
G01X43650Y5294D01*
G01X44206Y5651D02*
G01X44143Y5630D01*
G01X44102Y5567D01*
G01X44081Y5463D01*
G01X44081Y5400D01*
G01X44102Y5294D01*
G01X44143Y5232D01*
G01X44206Y5211D01*
G01X44247Y5211D01*
G01X44310Y5232D01*
G01X44352Y5294D01*
G01X44372Y5400D01*
G01X44372Y5463D01*
G01X44352Y5567D01*
G01X44310Y5630D01*
G01X44247Y5651D01*
G01X44206Y5651D01*
G01X43859Y6651D02*
G01X43650Y6357D01*
G01X43964Y6357D01*
G01X43859Y6651D02*
G01X43859Y6211D01*
G01X44206Y6651D02*
G01X44143Y6630D01*
G01X44122Y6588D01*
G01X44122Y6546D01*
G01X44143Y6505D01*
G01X44185Y6484D01*
G01X44268Y6463D01*
G01X44331Y6442D01*
G01X44372Y6400D01*
G01X44393Y6357D01*
G01X44393Y6294D01*
G01X44372Y6253D01*
G01X44352Y6232D01*
G01X44289Y6211D01*
G01X44206Y6211D01*
G01X44143Y6232D01*
G01X44122Y6253D01*
G01X44102Y6294D01*
G01X44102Y6357D01*
G01X44122Y6400D01*
G01X44164Y6442D01*
G01X44227Y6463D01*
G01X44310Y6484D01*
G01X44352Y6505D01*
G01X44372Y6546D01*
G01X44372Y6588D01*
G01X44352Y6630D01*
G01X44289Y6651D01*
G01X44206Y6651D01*
G01X47151Y4651D02*
G01X46942Y4651D01*
G01X46921Y4463D01*
G01X46942Y4484D01*
G01X47005Y4505D01*
G01X47067Y4505D01*
G01X47130Y4484D01*
G01X47172Y4442D01*
G01X47193Y4378D01*
G01X47193Y4336D01*
G01X47172Y4275D01*
G01X47130Y4232D01*
G01X47067Y4211D01*
G01X47005Y4211D01*
G01X46942Y4232D01*
G01X46921Y4253D01*
G01X46900Y4294D01*
G01X47372Y4651D02*
G01X47602Y4651D01*
G01X47477Y4484D01*
G01X47539Y4484D01*
G01X47581Y4463D01*
G01X47602Y4442D01*
G01X47622Y4378D01*
G01X47622Y4336D01*
G01X47602Y4275D01*
G01X47560Y4232D01*
G01X47497Y4211D01*
G01X47435Y4211D01*
G01X47372Y4232D01*
G01X47352Y4253D01*
G01X47331Y4294D01*
G01X43901Y4651D02*
G01X43692Y4651D01*
G01X43671Y4463D01*
G01X43692Y4484D01*
G01X43755Y4505D01*
G01X43817Y4505D01*
G01X43880Y4484D01*
G01X43922Y4442D01*
G01X43943Y4378D01*
G01X43943Y4336D01*
G01X43922Y4275D01*
G01X43880Y4232D01*
G01X43817Y4211D01*
G01X43755Y4211D01*
G01X43692Y4232D01*
G01X43671Y4253D01*
G01X43650Y4294D01*
G01X44102Y4546D02*
G01X44102Y4567D01*
G01X44122Y4609D01*
G01X44143Y4630D01*
G01X44185Y4651D01*
G01X44268Y4651D01*
G01X44310Y4630D01*
G01X44331Y4609D01*
G01X44352Y4567D01*
G01X44352Y4525D01*
G01X44331Y4484D01*
G01X44289Y4421D01*
G01X44081Y4211D01*
G01X44372Y4211D01*
G01X35807Y16731D02*
G01X35782Y16781D01*
G01X35731Y16832D01*
G01X35680Y16858D01*
G01X35578Y16858D01*
G01X35527Y16832D01*
G01X35476Y16781D01*
G01X35451Y16731D01*
G01X35426Y16654D01*
G01X35426Y16527D01*
G01X35451Y16451D01*
G01X35476Y16400D01*
G01X35527Y16349D01*
G01X35578Y16323D01*
G01X35680Y16323D01*
G01X35731Y16349D01*
G01X35782Y16400D01*
G01X35807Y16451D01*
G01X36128Y16858D02*
G01X36077Y16832D01*
G01X36026Y16781D01*
G01X36001Y16731D01*
G01X35975Y16654D01*
G01X35975Y16527D01*
G01X36001Y16451D01*
G01X36026Y16400D01*
G01X36077Y16349D01*
G01X36128Y16323D01*
G01X36230Y16323D01*
G01X36281Y16349D01*
G01X36332Y16400D01*
G01X36357Y16451D01*
G01X36383Y16527D01*
G01X36383Y16654D01*
G01X36357Y16731D01*
G01X36332Y16781D01*
G01X36281Y16832D01*
G01X36230Y16858D01*
G01X36128Y16858D01*
G01X36551Y16858D02*
G01X36551Y16323D01*
G01X36551Y16858D02*
G01X36754Y16323D01*
G01X36958Y16858D02*
G01X36754Y16323D01*
G01X36958Y16858D02*
G01X36958Y16323D01*
G01X37126Y16858D02*
G01X37126Y16323D01*
G01X37126Y16858D02*
G01X37330Y16323D01*
G01X37533Y16858D02*
G01X37330Y16323D01*
G01X37533Y16858D02*
G01X37533Y16323D01*
G01X37701Y16858D02*
G01X37701Y16476D01*
G01X37727Y16400D01*
G01X37778Y16349D01*
G01X37854Y16323D01*
G01X37905Y16323D01*
G01X37981Y16349D01*
G01X38032Y16400D01*
G01X38058Y16476D01*
G01X38058Y16858D01*
G01X38226Y16858D02*
G01X38226Y16323D01*
G01X38226Y16858D02*
G01X38582Y16323D01*
G01X38582Y16858D02*
G01X38582Y16323D01*
G01X38750Y16858D02*
G01X38750Y16323D01*
G01X39300Y16731D02*
G01X39274Y16781D01*
G01X39223Y16832D01*
G01X39172Y16858D01*
G01X39071Y16858D01*
G01X39020Y16832D01*
G01X38969Y16781D01*
G01X38943Y16731D01*
G01X38918Y16654D01*
G01X38918Y16527D01*
G01X38943Y16451D01*
G01X38969Y16400D01*
G01X39020Y16349D01*
G01X39071Y16323D01*
G01X39172Y16323D01*
G01X39223Y16349D01*
G01X39274Y16400D01*
G01X39300Y16451D01*
G01X39671Y16858D02*
G01X39468Y16323D01*
G01X39671Y16858D02*
G01X39875Y16323D01*
G01X39544Y16501D02*
G01X39799Y16501D01*
G01X40221Y16858D02*
G01X40221Y16323D01*
G01X40043Y16858D02*
G01X40399Y16858D01*
G01X40567Y16858D02*
G01X40567Y16323D01*
G01X40888Y16858D02*
G01X40837Y16832D01*
G01X40786Y16781D01*
G01X40761Y16731D01*
G01X40735Y16654D01*
G01X40735Y16527D01*
G01X40761Y16451D01*
G01X40786Y16400D01*
G01X40837Y16349D01*
G01X40888Y16323D01*
G01X40990Y16323D01*
G01X41041Y16349D01*
G01X41092Y16400D01*
G01X41117Y16451D01*
G01X41143Y16527D01*
G01X41143Y16654D01*
G01X41117Y16731D01*
G01X41092Y16781D01*
G01X41041Y16832D01*
G01X40990Y16858D01*
G01X40888Y16858D01*
G01X41311Y16858D02*
G01X41311Y16323D01*
G01X41311Y16858D02*
G01X41667Y16323D01*
G01X41667Y16858D02*
G01X41667Y16323D01*
G54D10*
G75*
G01X16544Y19034D02*
G02X15756Y19034I-394J-984D01*
G01*
G75*
G01X21050Y16240D02*
G02X21050Y15740I0J-250D01*
G01*
G75*
G01X21050Y10240D02*
G02X21050Y9740I0J-250D01*
G01*
G75*
G01X25459Y9220D02*
G03X25459Y10780I590J780D01*
G01*
G75*
G01X21035Y15140D02*
G03X21035Y15140I-75J0D01*
G01*
G75*
G01X21035Y9140D02*
G03X21035Y9140I-75J0D01*
G01*
G75*
G01X39700Y10550D02*
G03X39700Y10550I-2750J0D01*
G01*
G75*
G01X30370Y15550D02*
G03X30370Y15550I-2320J0D01*
G01*
G75*
G01X18650Y3950D02*
G03X18650Y3950I-1600J0D01*
G01*
G75*
G01X17600Y3950D02*
G03X17600Y3950I-550J0D01*
G01*
M00*
M02*
